<svg xmlns="http://www.w3.org/2000/svg" width="50" height="50" viewBox="0 0 50 50" version="1.1"><path d="" stroke="none" fill="#080404" fill-rule="evenodd"/><path d="M 21.714 3.619 C 20.397 4.936, 20.970 10.051, 22.500 10.638 C 23.325 10.955, 24 11.841, 24 12.607 C 24 13.651, 22.415 14, 17.674 14 C 9.987 14, 7 16.326, 7 22.314 C 7 25.579, 6.714 26, 4.500 26 C 2.111 26, 2 26.267, 2 32 C 2 37.733, 2.111 38, 4.500 38 C 6.796 38, 7 38.367, 7 42.500 L 7 47 25 47 L 43 47 43 42.500 C 43 38.367, 43.204 38, 45.500 38 C 47.889 38, 48 37.733, 48 32 C 48 26.267, 47.889 26, 45.500 26 C 43.269 26, 43 25.588, 43 22.174 C 43 16.302, 39.955 14, 32.186 14 C 27.565 14, 26 13.648, 26 12.607 C 26 11.841, 26.704 10.944, 27.564 10.614 C 28.641 10.201, 29.030 9, 28.814 6.757 C 28.543 3.945, 28.085 3.459, 25.464 3.203 C 23.794 3.039, 22.107 3.227, 21.714 3.619 M 24 7 C 24 7.550, 24.450 8, 25 8 C 25.550 8, 26 7.550, 26 7 C 26 6.450, 25.550 6, 25 6 C 24.450 6, 24 6.450, 24 7 M 11.455 18.455 C 9.120 20.789, 9 21.499, 9 32.955 L 9 45 12 45 C 14.833 45, 15 44.778, 15 41 L 15 37 25 37 L 35 37 35 41 C 35 44.778, 35.167 45, 38 45 L 41 45 41 32.955 C 41 21.499, 40.880 20.789, 38.545 18.455 C 36.234 16.144, 35.442 16, 25 16 C 14.558 16, 13.766 16.144, 11.455 18.455 M 15.200 23.200 C 14.540 23.860, 14 25.345, 14 26.500 C 14 30.492, 18.995 32.605, 21.800 29.800 C 24.605 26.995, 22.492 22, 18.500 22 C 17.345 22, 15.860 22.540, 15.200 23.200 M 28.200 23.200 C 26.657 24.743, 26.657 28.257, 28.200 29.800 C 29.743 31.343, 33.257 31.343, 34.800 29.800 C 37.605 26.995, 35.492 22, 31.500 22 C 30.345 22, 28.860 22.540, 28.200 23.200 M 17.120 25.355 C 16.249 26.405, 16.305 27.008, 17.355 27.880 C 18.405 28.751, 19.008 28.695, 19.880 27.645 C 20.751 26.595, 20.695 25.992, 19.645 25.120 C 18.595 24.249, 17.992 24.305, 17.120 25.355 M 30.120 25.355 C 29.249 26.405, 29.305 27.008, 30.355 27.880 C 31.405 28.751, 32.008 28.695, 32.880 27.645 C 33.751 26.595, 33.695 25.992, 32.645 25.120 C 31.595 24.249, 30.992 24.305, 30.120 25.355 M 4 32 C 4 34.889, 4.417 36, 5.500 36 C 6.583 36, 7 34.889, 7 32 C 7 29.111, 6.583 28, 5.500 28 C 4.417 28, 4 29.111, 4 32 M 43 32 C 43 34.889, 43.417 36, 44.500 36 C 45.583 36, 46 34.889, 46 32 C 46 29.111, 45.583 28, 44.500 28 C 43.417 28, 43 29.111, 43 32 M 17 42 C 17 44.333, 17.444 45, 19 45 C 20.556 45, 21 44.333, 21 42 C 21 39.667, 20.556 39, 19 39 C 17.444 39, 17 39.667, 17 42 M 23 42 C 23 44.333, 23.444 45, 25 45 C 26.556 45, 27 44.333, 27 42 C 27 39.667, 26.556 39, 25 39 C 23.444 39, 23 39.667, 23 42 M 29 42 C 29 44.333, 29.444 45, 31 45 C 32.556 45, 33 44.333, 33 42 C 33 39.667, 32.556 39, 31 39 C 29.444 39, 29 39.667, 29 42" stroke="none" fill="#040404" fill-rule="evenodd"/></svg>