<svg width="20" height="16" viewBox="0 0 20 16" fill="none" xmlns="http://www.w3.org/2000/svg">
<path d="M0 8V12C0 12.5531 0.446875 13 1 13H2V7H1C0.446875 7 0 7.44688 0 8ZM14.5 3H11V1C11 0.446875 10.5531 0 10 0C9.44687 0 9 0.446875 9 1V3H5.5C4.11875 3 3 4.11875 3 5.5V14C3 15.1031 3.89687 16 5 16H15C16.1031 16 17 15.1031 17 14V5.5C17 4.11875 15.8813 3 14.5 3ZM8 13H6V12H8V13ZM7 9.25C6.30937 9.25 5.75 8.69063 5.75 8C5.75 7.30937 6.30937 6.75 7 6.75C7.69063 6.75 8.25 7.30937 8.25 8C8.25 8.69063 7.69063 9.25 7 9.25ZM11 13H9V12H11V13ZM14 13H12V12H14V13ZM13 9.25C12.3094 9.25 11.75 8.69063 11.75 8C11.75 7.30937 12.3094 6.75 13 6.75C13.6906 6.75 14.25 7.30937 14.25 8C14.25 8.69063 13.6906 9.25 13 9.25ZM19 7H18V13H19C19.5531 13 20 12.5531 20 12V8C20 7.44688 19.5531 7 19 7Z" fill="#F1F3F0"/>
</svg>
