<svg width="20" height="20" viewBox="0 0 20 20" fill="none" xmlns="http://www.w3.org/2000/svg">
<path d="M5.4535 0.16339C5.40995 0.111601 5.35821 0.0705091 5.30123 0.042471C5.24425 0.0144329 5.18316 0 5.12147 0C5.05977 0 4.99869 0.0144329 4.94171 0.042471C4.88473 0.0705091 4.83299 0.111601 4.78944 0.16339L2.30193 3.09421L1.41521 2.0702C1.37167 2.01842 1.31992 1.97732 1.26294 1.94929C1.20596 1.92125 1.14488 1.90681 1.08318 1.90681C1.02149 1.90681 0.960402 1.92125 0.903424 1.94929C0.846447 1.97732 0.7947 2.01842 0.751152 2.0702L0.13787 2.79793C0.0941698 2.84954 0.0594962 2.91087 0.0358374 2.97839C0.0121786 3.04592 0 3.11831 0 3.19142C0 3.26454 0.0121786 3.33693 0.0358374 3.40446C0.0594962 3.47198 0.0941698 3.53331 0.13787 3.58492L1.99686 5.77921C2.08965 5.88374 2.21278 5.94203 2.3408 5.94203C2.46883 5.94203 2.59196 5.88374 2.68475 5.77921L3.29373 5.05611L6.11405 1.71421C6.20192 1.60999 6.25157 1.46891 6.25223 1.32157C6.25289 1.17424 6.2045 1.03255 6.11756 0.927227L5.4535 0.16339ZM5.4535 7.53279C5.40995 7.48101 5.35821 7.43991 5.30123 7.41188C5.24425 7.38384 5.18316 7.3694 5.12147 7.3694C5.05977 7.3694 4.99869 7.38384 4.94171 7.41188C4.88473 7.43991 4.83299 7.48101 4.78944 7.53279L2.30193 10.4826L1.41521 9.45952C1.37167 9.40773 1.31992 9.36663 1.26294 9.3386C1.20596 9.31056 1.14488 9.29613 1.08318 9.29613C1.02149 9.29613 0.960402 9.31056 0.903424 9.3386C0.846447 9.36663 0.7947 9.40773 0.751152 9.45952L0.13787 10.1859C0.0941698 10.2375 0.0594962 10.2988 0.0358374 10.3663C0.0121786 10.4338 0 10.5062 0 10.5793C0 10.6525 0.0121786 10.7249 0.0358374 10.7924C0.0594962 10.8599 0.0941698 10.9212 0.13787 10.9728L1.99217 13.1718C2.08489 13.2763 2.20796 13.3345 2.33592 13.3345C2.46388 13.3345 2.58694 13.2763 2.67967 13.1718L3.29295 12.4454L6.11327 9.10213C6.2008 8.99864 6.25029 8.85835 6.25095 8.71181C6.25161 8.56528 6.20338 8.42437 6.11678 8.31978L5.4535 7.53279ZM2.49998 15.5559C1.46521 15.5559 0.601933 16.5512 0.601933 17.7779C0.601933 19.0047 1.466 20 2.49998 20C2.99726 20 3.47418 19.7659 3.82581 19.3492C4.17744 18.9325 4.37498 18.3673 4.37498 17.7779C4.37498 17.1886 4.17744 16.6234 3.82581 16.2067C3.47418 15.79 2.99726 15.5559 2.49998 15.5559ZM19.375 16.2965H8.12499C7.95923 16.2965 7.80026 16.3746 7.68305 16.5135C7.56583 16.6524 7.49999 16.8408 7.49999 17.0372V18.5186C7.49999 18.7151 7.56583 18.9035 7.68305 19.0424C7.80026 19.1813 7.95923 19.2593 8.12499 19.2593H19.375C19.5408 19.2593 19.6997 19.1813 19.8169 19.0424C19.9342 18.9035 20 18.7151 20 18.5186V17.0372C20 16.8408 19.9342 16.6524 19.8169 16.5135C19.6997 16.3746 19.5408 16.2965 19.375 16.2965ZM19.375 1.48274H8.12499C7.95923 1.48274 7.80026 1.56078 7.68305 1.69969C7.56583 1.83859 7.49999 2.02699 7.49999 2.22343V3.70482C7.49999 3.90126 7.56583 4.08966 7.68305 4.22856C7.80026 4.36747 7.95923 4.44551 8.12499 4.44551H19.375C19.5408 4.44551 19.6997 4.36747 19.8169 4.22856C19.9342 4.08966 20 3.90126 20 3.70482V2.22343C20 2.02699 19.9342 1.83859 19.8169 1.69969C19.6997 1.56078 19.5408 1.48274 19.375 1.48274ZM19.375 8.88965H8.12499C7.95923 8.88965 7.80026 8.96768 7.68305 9.10659C7.56583 9.2455 7.49999 9.43389 7.49999 9.63034V11.1117C7.49999 11.3082 7.56583 11.4966 7.68305 11.6355C7.80026 11.7744 7.95923 11.8524 8.12499 11.8524H19.375C19.5408 11.8524 19.6997 11.7744 19.8169 11.6355C19.9342 11.4966 20 11.3082 20 11.1117V9.63034C20 9.43389 19.9342 9.2455 19.8169 9.10659C19.6997 8.96768 19.5408 8.88965 19.375 8.88965Z" fill="#F1F3F0"/>
</svg>
