<svg width="20" height="20" viewBox="0 0 20 20" fill="none" xmlns="http://www.w3.org/2000/svg">
<path d="M12 12H8C7.44781 12 7 12.4478 7 13V17C7 17.5522 7.44781 18 8 18H12C12.5522 18 13 17.5522 13 17V13C13 12.4478 12.5522 12 12 12ZM6 3C6 2.44781 5.55219 2 5 2H1C0.447812 2 0 2.44781 0 3V7C0 7.55219 0.447812 8 1 8H3.99125L6.2775 12.0013C6.62438 11.4056 7.2625 11 8 11H8.00875L6 7.48469V6H13V4H6V3ZM19 2H15C14.4478 2 14 2.44781 14 3V7C14 7.55219 14.4478 8 15 8H19C19.5522 8 20 7.55219 20 7V3C20 2.44781 19.5522 2 19 2Z" fill="#F1F3F0"/>
</svg>
