<?xml version="1.0" encoding="UTF-8"?>
<svg version="1.1" xmlns="http://www.w3.org/2000/svg" width="672" height="196">
<path d="M0 0 C221.76 0 443.52 0 672 0 C672 64.68 672 129.36 672 196 C450.24 196 228.48 196 0 196 C0 131.32 0 66.64 0 0 Z " fill="#000100" transform="translate(0,0)"/>
<path d="M0 0 C8.29363066 -0.59677416 17.9919491 2.48008045 24.5546875 7.59765625 C32.50471268 16.15922183 35.56078678 24.44289757 35.3671875 36.16015625 C35.35413574 37.4762085 35.35413574 37.4762085 35.34082031 38.81884766 C35.10276516 49.31473841 32.82820344 56.86382778 25.6796875 64.78515625 C16.78735857 72.85029179 9.25665278 74.73997811 -2.7890625 74.54296875 C-7.69452062 74.05480423 -11.6663676 72.48844684 -16.0078125 70.22265625 C-17.0596875 69.68640625 -18.1115625 69.15015625 -19.1953125 68.59765625 C-27.09203262 61.92931481 -31.31319908 53.38822292 -32.18359375 43.15625 C-32.93892509 30.74723509 -32.08878146 20.70621539 -23.8203125 10.84765625 C-16.41060535 3.20715494 -10.15239902 1.1258497 0 0 Z " fill="#010301" transform="translate(622.0078125,61.77734375)"/>
<path d="M0 0 C10.2104639 7.53138805 17.66214909 16.56235765 20.25 29.3125 C20.50393865 33.68409226 20.4813296 38.05929235 20.5 42.4375 C20.520625 43.6234375 20.54125 44.809375 20.5625 46.03125 C20.62128784 59.34669606 17.05083815 70.39589935 8.25 80.640625 C-1.70152144 90.22628168 -14.52350669 94.13087616 -28.0625 94.625 C-41.74198571 94.29325784 -54.9230525 90.1394475 -64.75 80.3125 C-69.29714501 74.64575557 -72.55888875 69.23179869 -74.75 62.3125 C-75.27207031 61.07113281 -75.27207031 61.07113281 -75.8046875 59.8046875 C-79.73643402 45.27997103 -77.62094543 27.32314699 -70.75 14.125 C-64.71683575 4.48957066 -55.03866082 -3.06239573 -44.02636719 -6.22607422 C-29.37583523 -9.19577664 -12.84870185 -7.85806467 0 0 Z M-34.2109375 6.5625 C-43.43979071 7.92553063 -50.43529142 12.88418099 -56.2421875 20.08203125 C-63.25141787 30.45060778 -63.20637009 43.08271633 -61.08984375 55.04296875 C-58.80584135 63.47696895 -55.34237865 70.49877577 -47.734375 75.16015625 C-36.56784187 80.86479818 -26.33289338 82.09002899 -14.18359375 78.28125 C-5.98695339 75.01838193 -0.53093469 68.59305084 3.0625 60.625 C6.60794436 50.73507626 7.36698928 36.48420601 3.625 26.5625 C-1.07099432 17.20358174 -6.64797661 11.68148953 -16.5625 8.0625 C-22.8250376 6.10111338 -27.76737823 5.9079162 -34.2109375 6.5625 Z " fill="#3DE076" transform="translate(651.75,55.6875)"/>
<path d="M0 0 C0.92393555 0.00829834 1.84787109 0.01659668 2.79980469 0.02514648 C13.88576227 0.29965777 22.73785288 3.38123276 30.625 11.4375 C38.8227047 22.27210315 40.06515453 32.75309261 39.91796875 45.97265625 C39.91236306 47.46194529 39.90809757 48.95123992 39.90510559 50.4405365 C39.89373325 54.33189573 39.86433328 58.22291101 39.83099365 62.11413574 C39.80012711 66.09622548 39.78656507 70.0783716 39.77148438 74.06054688 C39.73945481 81.85303842 39.68675084 89.64517691 39.625 97.4375 C34.345 97.4375 29.065 97.4375 23.625 97.4375 C23.6156543 95.44976562 23.60630859 93.46203125 23.59667969 91.4140625 C23.56106444 84.82413179 23.50721085 78.23454434 23.44109726 71.64485168 C23.40169824 67.65205312 23.36947298 63.65947258 23.35400391 59.66650391 C23.33878687 55.80828418 23.30425344 51.95066416 23.25669098 48.0927124 C23.24192884 46.62568392 23.23396196 45.15856979 23.23311615 43.69146729 C23.31419675 31.37529012 23.31419675 31.37529012 17.2489624 20.96728516 C10.26746164 14.71551738 3.73112855 13.80263693 -5.3203125 14.09375 C-13.58510827 14.63418503 -20.36736078 17.27878327 -25.94140625 23.5078125 C-30.80769594 30.0580771 -32.45874692 36.31033037 -32.58032227 44.42114258 C-32.60026749 45.60198929 -32.62021271 46.782836 -32.64076233 47.99946594 C-32.65747482 49.26421249 -32.67418732 50.52895905 -32.69140625 51.83203125 C-32.71218735 53.13452316 -32.73296844 54.43701508 -32.75437927 55.77897644 C-32.80938184 59.22959263 -32.85888659 62.68026635 -32.90722656 66.13098145 C-32.95760164 69.65703406 -33.01320387 73.18300387 -33.06835938 76.70898438 C-33.1756738 83.61841919 -33.27669377 90.52793121 -33.375 97.4375 C-38.655 97.4375 -43.935 97.4375 -49.375 97.4375 C-49.375 65.7575 -49.375 34.0775 -49.375 1.4375 C-44.425 1.4375 -39.475 1.4375 -34.375 1.4375 C-34.375 7.0475 -34.375 12.6575 -34.375 18.4375 C-33.385 18.4375 -32.395 18.4375 -31.375 18.4375 C-31.148125 17.73625 -30.92125 17.035 -30.6875 16.3125 C-28.03546554 10.50328165 -23.43045967 5.20878943 -17.50244141 2.61962891 C-11.58706936 0.50728379 -6.25943215 -0.07255822 0 0 Z " fill="#3DDC76" transform="translate(391.375,49.5625)"/>
<path d="M0 0 C15.29700156 -0.60782788 26.49789004 5.0575176 37.9609375 14.55078125 C40.07532217 17.10137136 41.48113611 19.99670585 42.94921875 22.9453125 C43.26117187 23.54085937 43.573125 24.13640625 43.89453125 24.75 C46.1198878 29.18152899 46.58435871 32.01629221 47.32421875 37.1953125 C42.37421875 38.1853125 37.42421875 39.1753125 32.32421875 40.1953125 C31.15234375 36.97265625 29.98046875 33.75 28.80859375 30.52734375 C25.62253226 23.37547415 20.59013514 19.28444906 13.4140625 16.4375 C4.44690992 13.82284771 -5.14786393 14.45724207 -13.67578125 18.1953125 C-21.54565022 22.51518623 -26.83521839 29.55389311 -30.11328125 37.8203125 C-32.56255093 51.03560277 -31.33680315 64.99055586 -23.67578125 76.1953125 C-18.72686232 82.9041411 -12.74087322 85.5167404 -4.67578125 87.1953125 C3.97488671 88.29363029 12.46485754 87.03265074 20.32421875 83.1953125 C27.29665095 77.53430955 30.68237164 70.89266474 32.32421875 62.1953125 C34.44982312 62.50367482 36.5746894 62.81712864 38.69921875 63.1328125 C39.88257813 63.30683594 41.0659375 63.48085937 42.28515625 63.66015625 C45.32421875 64.1953125 45.32421875 64.1953125 47.32421875 65.1953125 C47.89406782 70.90270709 46.10609194 74.35183699 43.32421875 79.1328125 C42.91341064 79.84356934 42.50260254 80.55432617 42.0793457 81.28662109 C35.928247 91.55939453 27.05107938 97.70702618 15.4609375 101.01171875 C-1.45046513 104.43227119 -16.48267361 101.00584408 -30.87109375 91.7890625 C-38.93177785 85.57185324 -44.41877966 75.05570852 -46.23046875 65.16796875 C-46.80298983 60.06047809 -46.89911903 55.01862212 -46.92578125 49.8828125 C-46.95671875 48.41038086 -46.95671875 48.41038086 -46.98828125 46.90820312 C-47.05652521 34.01862569 -42.78788182 23.36241331 -33.92578125 13.9453125 C-24.16104121 4.73855761 -13.14630161 0.95958406 0 0 Z " fill="#3CE076" transform="translate(504.67578125,47.8046875)"/>
<path d="M0 0 C25.08 0 50.16 0 76 0 C76 21 76 21 72.578125 25.23828125 C71.06167905 26.17457679 69.5350706 27.09456313 68 28 C66.47625121 29.41044267 64.99330971 30.86584277 63.546875 32.35546875 C62.7724707 33.13317627 61.99806641 33.91088379 61.20019531 34.7121582 C59.98734863 35.93745239 59.98734863 35.93745239 58.75 37.1875 C57.89245117 38.04883545 57.03490234 38.9101709 56.15136719 39.79760742 C53.43179111 42.5293112 50.715488 45.26423275 48 48 C44.41961974 51.60711851 40.83584819 55.21081802 37.25 58.8125 C36.03715332 60.03779419 36.03715332 60.03779419 34.79980469 61.2878418 C30.56949709 65.53619378 26.26718655 69.62425371 21.71166992 73.52319336 C16.903425 77.56411318 16.903425 77.56411318 14 83 C34.79 83 55.58 83 77 83 C77 87.29 77 91.58 77 96 C50.93 96 24.86 96 -2 96 C-2 73.7214704 -2 73.7214704 2.36877441 69.33964539 C2.99989136 68.8086171 3.6310083 68.27758881 4.28125 67.73046875 C5.25161194 66.79899773 5.25161194 66.79899773 6.24157715 65.84870911 C8.28513888 63.90881409 10.38658129 62.05072223 12.5 60.1875 C13.88212158 58.89740084 15.25976853 57.60249057 16.6328125 56.30273438 C21.72983629 51.51411491 26.9577485 46.8831612 32.25390625 42.31640625 C37.03056941 38.17962587 41.48247519 33.70356749 45.94799805 29.23730469 C47.4541008 27.73342369 48.96808355 26.23777015 50.48242188 24.7421875 C51.4457996 23.78173834 52.40870809 22.82081823 53.37109375 21.859375 C54.6693811 20.56725098 54.6693811 20.56725098 55.99389648 19.24902344 C58.19199361 17.08319896 58.19199361 17.08319896 59 14 C39.53 14 20.06 14 0 14 C0 9.38 0 4.76 0 0 Z " fill="#3BE378" transform="translate(189,51)"/>
<path d="M0 0 C0 20.13 0 40.26 0 61 C-4.07799537 60.18440093 -5.92673801 59.6968135 -9.29296875 57.70703125 C-10.47729492 57.01383789 -10.47729492 57.01383789 -11.68554688 56.30664062 C-12.92401367 55.56704102 -12.92401367 55.56704102 -14.1875 54.8125 C-15.04537109 54.30783203 -15.90324219 53.80316406 -16.78710938 53.28320312 C-21.60354773 50.44461778 -26.40543914 47.58091522 -31.1796875 44.671875 C-33.71057779 43.17156884 -36.25957388 41.7141433 -38.8203125 40.265625 C-39.69042969 39.770625 -40.56054688 39.275625 -41.45703125 38.765625 C-43.21913342 37.76460649 -44.98471432 36.76968412 -46.75390625 35.78125 C-47.55957031 35.32234375 -48.36523438 34.8634375 -49.1953125 34.390625 C-49.92766113 33.97844727 -50.66000977 33.56626953 -51.41455078 33.14160156 C-51.93774902 32.76487305 -52.46094727 32.38814453 -53 32 C-53 31.34 -53 30.68 -53 30 C-50.52875197 28.38206657 -48.06480695 26.89426838 -45.5 25.4375 C-44.35325806 24.77476074 -44.35325806 24.77476074 -43.18334961 24.09863281 C-37.33162121 20.72728646 -31.44296876 17.42029612 -25.54882812 14.1237793 C-18.08251724 9.943131 -10.76356042 5.55494306 -3.59375 0.8828125 C-2 0 -2 0 0 0 Z " fill="#3CE276" transform="translate(81,28)"/>
<path d="M0 0 C0 20.13 0 40.26 0 61 C-16.04191483 52.97904258 -16.04191483 52.97904258 -23.5 48.5625 C-25.11825031 47.61417491 -26.73674208 46.66626175 -28.35546875 45.71875 C-29.13712402 45.25984375 -29.9187793 44.8009375 -30.72412109 44.328125 C-35.12957228 41.75725453 -39.57669603 39.25942721 -44.01953125 36.75390625 C-47.1053203 34.93802252 -50.10428629 33.10794107 -53 31 C-53 30.34 -53 29.68 -53 29 C-39.8084364 21.41244371 -39.8084364 21.41244371 -33.8125 18.1875 C-26.94070458 14.46997133 -20.20609955 10.51358101 -13.453125 6.5859375 C-12.32487305 5.93189941 -12.32487305 5.93189941 -11.17382812 5.26464844 C-9.75749502 4.44068107 -8.34453656 3.61087672 -6.93554688 2.77441406 C-2.21635884 0 -2.21635884 0 0 0 Z " fill="#3BE276" transform="translate(81,107)"/>
<path d="M0 0 C3.89664224 1.5586569 7.06353087 3.11887831 10.625 5.25 C14.41151229 7.51153336 18.22758837 9.67949001 22.10546875 11.78125 C28.35502626 15.17599263 34.53041221 18.69072819 40.6875 22.25 C41.78255859 22.87390625 42.87761719 23.4978125 44.00585938 24.140625 C45.03904297 24.73875 46.07222656 25.336875 47.13671875 25.953125 C48.07217529 26.49098633 49.00763184 27.02884766 49.97143555 27.58300781 C50.64086182 28.05061523 51.31028809 28.51822266 52 29 C52 29.66 52 30.32 52 31 C50.20263672 32.29345703 50.20263672 32.29345703 47.6796875 33.7578125 C46.75865234 34.29704346 45.83761719 34.83627441 44.88867188 35.3918457 C43.89416016 35.96378662 42.89964844 36.53572754 41.875 37.125 C40.86759766 37.71176514 39.86019531 38.29853027 38.82226562 38.90307617 C35.88615547 40.61024272 32.9443205 42.30704175 30 44 C29.2771582 44.41685059 28.55431641 44.83370117 27.80957031 45.26318359 C24.96751281 46.9009174 22.11973757 48.52789019 19.265625 50.14453125 C16.87211244 51.50448157 14.48796341 52.87616171 12.109375 54.26171875 C11.46419922 54.63578857 10.81902344 55.0098584 10.15429688 55.39526367 C8.91407653 56.11475048 7.6756918 56.83741381 6.43945312 57.5637207 C2.22468379 60 2.22468379 60 0 60 C0 40.2 0 20.4 0 0 Z " fill="#3CE277" transform="translate(94,107)"/>
<path d="M0 0 C4.75705228 1.58568409 8.13952321 3.07252255 12.375 5.5625 C13.60637122 6.28063357 14.83815912 6.99805302 16.0703125 7.71484375 C17.0298584 8.27534424 17.0298584 8.27534424 18.00878906 8.84716797 C21.40112586 10.81119621 24.82761393 12.71399215 28.25 14.625 C33.53816698 17.58523763 38.75892891 20.63211893 43.9375 23.78125 C46.56574412 25.33430334 49.2420144 26.69358577 52 28 C50.58117254 31.52477481 49.11391501 32.84818261 45.80859375 34.6640625 C44.95434814 35.14149902 44.10010254 35.61893555 43.2199707 36.11083984 C42.30175537 36.6105127 41.38354004 37.11018555 40.4375 37.625 C38.52290057 38.69174522 36.60884542 39.75946784 34.6953125 40.828125 C33.73657227 41.35986328 32.77783203 41.89160156 31.79003906 42.43945312 C27.76229399 44.69228359 23.78419919 47.02516108 19.8125 49.375 C19.12075684 49.78234375 18.42901367 50.1896875 17.71630859 50.609375 C13.04058723 53.36740419 8.39709856 56.17538648 3.78515625 59.0390625 C2 60 2 60 0 60 C0 40.2 0 20.4 0 0 Z " fill="#3DE377" transform="translate(94,29)"/>
<path d="M0 0 C5.28 0 10.56 0 16 0 C16 31.68 16 63.36 16 96 C10.72 96 5.44 96 0 96 C0 64.32 0 32.64 0 0 Z " fill="#3CD674" transform="translate(294,51)"/>
<path d="M0 0 C0 19.14 0 38.28 0 58 C-3.64179738 56.54328105 -6.75497543 55.11369258 -10.1328125 53.20703125 C-11.10476562 52.65853516 -12.07671875 52.11003906 -13.078125 51.54492188 C-14.08359375 50.97322266 -15.0890625 50.40152344 -16.125 49.8125 C-17.10726562 49.26013672 -18.08953125 48.70777344 -19.1015625 48.13867188 C-25.04118623 44.77418764 -30.8258062 41.24850509 -36.52294922 37.48706055 C-38.95565443 36.0266222 -41.34015349 34.97476146 -44 34 C-44 33.34 -44 32.68 -44 32 C-44.928125 31.7834375 -44.928125 31.7834375 -45.875 31.5625 C-48 31 -48 31 -50 30 C-50 29.34 -50 28.68 -50 28 C-47.52872994 26.38205215 -45.06480836 24.89431336 -42.5 23.4375 C-41.73187988 22.99349854 -40.96375977 22.54949707 -40.17236328 22.09204102 C-34.44777212 18.79345207 -28.68638671 15.55904859 -22.91357422 12.34570312 C-17.42523054 9.27824529 -12.03979745 6.05263573 -6.69482422 2.74194336 C-2.21359301 0 -2.21359301 0 0 0 Z " fill="#3CE175" transform="translate(158,69)"/>
<path d="M0 0 C24.42 0 48.84 0 74 0 C74 20 74 20 70.66796875 25.6015625 C68.49414062 27.703125 68.49414062 27.703125 66.1875 29.625 C65.46884766 30.32882813 64.75019531 31.03265625 64.00976562 31.7578125 C59.13196784 36.22733646 55.03740955 37.92070865 48.47387695 38.62646484 C45.88263561 39.01772106 44.20529021 39.59714972 42 41 C41.34 41.99 40.68 42.98 40 44 C38.68 43.34 37.36 42.68 36 42 C36 39 36 39 37.16162109 37.46606445 C37.69352051 36.937146 38.22541992 36.40822754 38.7734375 35.86328125 C39.3509375 35.28642578 39.9284375 34.70957031 40.5234375 34.11523438 C41.13445312 33.52033203 41.74546875 32.92542969 42.375 32.3125 C43.27992188 31.40274414 43.27992188 31.40274414 44.203125 30.47460938 C48.73310075 26 48.73310075 26 51 26 C51.2475 25.38125 51.495 24.7625 51.75 24.125 C53.20628639 21.64931313 54.37812506 21.04874998 57 20 C57 19.34 57 18.68 57 18 C57.99 18 58.98 18 60 18 C59.505 15.03 59.505 15.03 59 12 C39.53 12 20.06 12 0 12 C0 8.04 0 4.08 0 0 Z " fill="#3AE376" transform="translate(190,52)"/>
<path d="M0 0 C5.53417043 7.17845789 4.51192723 16.64219978 4.390625 25.19140625 C4.38315161 26.74795297 4.37746387 28.30450918 4.37347412 29.86106873 C4.35830394 33.93009053 4.31909854 37.99852844 4.2746582 42.06732178 C4.23351776 46.23034775 4.2154233 50.39346935 4.1953125 54.55664062 C4.15259414 62.70469309 4.08444976 70.85227362 4 79 C1.11788698 79.96070434 -0.69850044 80.10581883 -3.6875 80.0625 C-4.49574219 80.05347656 -5.30398438 80.04445313 -6.13671875 80.03515625 C-6.75160156 80.02355469 -7.36648438 80.01195312 -8 80 C-8.15359422 71.15126358 -8.3017759 62.30245819 -8.4429636 53.45351505 C-8.50868791 49.34501734 -8.57630739 45.23656871 -8.64819336 41.12817383 C-8.71744175 37.16659657 -8.78179646 33.20496781 -8.84269524 29.24325371 C-8.86685236 27.72849049 -8.89280114 26.21375478 -8.92053413 24.69905281 C-8.95894714 22.58465001 -8.99110482 20.47024078 -9.02172852 18.35571289 C-9.04171402 17.14992081 -9.06169952 15.94412872 -9.08229065 14.70179749 C-9 12 -9 12 -8 11 C-7.79764334 8.45030614 -7.68084754 5.90307036 -7.57421875 3.34765625 C-7 1 -7 1 -5.14453125 -0.37890625 C-3 -1 -3 -1 0 0 Z " fill="#3BE376" transform="translate(425,65)"/>
<path d="M0 0 C25.08 0 50.16 0 76 0 C76 6.93 76 13.86 76 21 C75.67 21 75.34 21 75 21 C75 14.4 75 7.8 75 1 C50.58 1 26.16 1 1 1 C1 4.96 1 8.92 1 13 C20.47 13 39.94 13 60 13 C60.495 15.97 60.495 15.97 61 19 C60.01 19 59.02 19 58 19 C58 19.66 58 20.32 58 21 C56.35648543 22.36176922 54.68477344 23.68962066 53 25 C51.31919783 26.65241024 49.65459859 28.32135201 48 30 C47.03597788 30.96566468 46.07111862 31.93049429 45.10546875 32.89453125 C44.62529297 33.37470703 44.14511719 33.85488281 43.65039062 34.34960938 C41.43359375 36.56640625 39.21679688 38.78320312 37 41 C37.66 41.99 38.32 42.98 39 44 C39.66 44 40.32 44 41 44 C41.66 43.01 42.32 42.02 43 41 C47.40371617 38.89763648 52.09803329 37.52561612 57 38 C51.97221923 44.1094892 46.47513586 49.71104286 40.88549805 55.29980469 C39.3003173 56.88719972 37.72334313 58.48246796 36.14648438 60.078125 C35.13590553 61.09163352 34.12485485 62.10467184 33.11328125 63.1171875 C31.74876831 64.48786377 31.74876831 64.48786377 30.35668945 65.88623047 C28 68 28 68 25 69 C25 68.34 25 67.68 25 67 C22.03 67.99 22.03 67.99 19 69 C18.67 66.69 18.34 64.38 18 62 C14.91489173 63.19976433 11.94952958 64.50002556 9 66 C12.87557306 61.23858166 17.04514165 56.84483408 21.375 52.5 C21.90375732 51.96673096 22.43251465 51.43346191 22.97729492 50.8840332 C25.79738923 48.07421091 28.67717551 45.38863629 31.69921875 42.796875 C36.66413424 38.49696739 41.30669409 33.87937771 45.94799805 29.23730469 C47.4541008 27.73342369 48.96808355 26.23777015 50.48242188 24.7421875 C51.4457996 23.78173834 52.40870809 22.82081823 53.37109375 21.859375 C54.6693811 20.56725098 54.6693811 20.56725098 55.99389648 19.24902344 C58.19199361 17.08319896 58.19199361 17.08319896 59 14 C39.53 14 20.06 14 0 14 C0 9.38 0 4.76 0 0 Z " fill="#3DC46E" transform="translate(189,51)"/>
<path d="M0 0 C24.42 0 48.84 0 74 0 C74 20 74 20 70.66796875 25.6015625 C68.49414062 27.703125 68.49414062 27.703125 66.1875 29.625 C65.46884766 30.32882813 64.75019531 31.03265625 64.00976562 31.7578125 C59.13196784 36.22733646 55.03740955 37.92070865 48.47387695 38.62646484 C45.88263561 39.01772106 44.20529021 39.59714972 42 41 C41.34 41.99 40.68 42.98 40 44 C38.68 43.34 37.36 42.68 36 42 C36 39 36 39 37.16162109 37.46606445 C37.69352051 36.937146 38.22541992 36.40822754 38.7734375 35.86328125 C39.3509375 35.28642578 39.9284375 34.70957031 40.5234375 34.11523438 C41.13445312 33.52033203 41.74546875 32.92542969 42.375 32.3125 C43.27992188 31.40274414 43.27992188 31.40274414 44.203125 30.47460938 C48.73310075 26 48.73310075 26 51 26 C51.2475 25.38125 51.495 24.7625 51.75 24.125 C53.20628639 21.64931313 54.37812506 21.04874998 57 20 C57.495 20.99 57.495 20.99 58 22 C58.33 22.33 58.66 22.66 59 23 C59.495 21.515 59.495 21.515 60 20 C60.66 20 61.32 20 62 20 C62 19.01 62 18.02 62 17 C63.32 17.33 64.64 17.66 66 18 C66 16.68 66 15.36 66 14 C66.99 14 67.98 14 69 14 C68.44271087 17.34373475 67.64826111 20.03312999 66 23 C66.99 23 67.98 23 69 23 C69.2165625 22.071875 69.2165625 22.071875 69.4375 21.125 C70 19 70 19 71 17 C71.33 11.72 71.66 6.44 72 1 C48.57 1 25.14 1 1 1 C1 4.3 1 7.6 1 11 C19.81 11 38.62 11 58 11 C58 11.33 58 11.66 58 12 C38.86 12 19.72 12 0 12 C0 8.04 0 4.08 0 0 Z " fill="#3DE278" transform="translate(190,52)"/>
<path d="M0 0 C2.125 1.6875 2.125 1.6875 4.125 4.6875 C4.390625 7.02734375 4.390625 7.02734375 4.375 9.625 C4.38015625 10.47964844 4.3853125 11.33429687 4.390625 12.21484375 C3.99270201 15.9190386 2.91810424 17.99353379 0.125 20.4375 C-4.22940672 22.25183614 -8.22945714 22.51896826 -12.875 21.6875 C-16.22125024 19.16073961 -17.55477847 17.64816458 -18.875 13.6875 C-19.30444785 4.66909509 -19.30444785 4.66909509 -16.875 1.6875 C-11.45143739 -1.92820841 -6.03511933 -2.75516317 0 0 Z " fill="#3BE378" transform="translate(308.875,14.3125)"/>
<path d="M0 0 C2.12560437 0.30836232 4.25047065 0.62181614 6.375 0.9375 C7.55835938 1.11152344 8.74171875 1.28554687 9.9609375 1.46484375 C13 2 13 2 15 3 C15.57001789 8.70908539 13.78018559 12.15450001 11 16.9375 C10.39248901 17.99819702 10.39248901 17.99819702 9.77270508 19.08032227 C6.37732117 24.78956803 2.44161512 30.68540638 -4.23046875 32.66015625 C-4.81441406 32.77230469 -5.39835938 32.88445312 -6 33 C-6.66 31.68 -7.32 30.36 -8 29 C-6.02 29.33 -4.04 29.66 -2 30 C-1.06619039 25.46859347 -1.06619039 25.46859347 -2 21 C-2.66 20.67 -3.32 20.34 -4 20 C-3.34 18.35 -2.68 16.7 -2 15 C-4.08333079 16.74934898 -4.08333079 16.74934898 -6 19 C-6 20.32 -6 21.64 -6 23 C-6.99 23.33 -7.98 23.66 -9 24 C-9 23.34 -9 22.68 -9 22 C-10.65 22.33 -12.3 22.66 -14 23 C-13.29875 22.34 -12.5975 21.68 -11.875 21 C-5.59248882 14.62824861 -2.04863942 8.76961437 0 0 Z " fill="#41DD7A" transform="translate(537,110)"/>
<path d="M0 0 C0.75732422 0.00644531 1.51464844 0.01289062 2.29492188 0.01953125 C3.08060547 0.03628906 3.86628906 0.05304687 4.67578125 0.0703125 C5.47306641 0.07933594 6.27035156 0.08835938 7.09179688 0.09765625 C9.05742025 0.12119665 11.022889 0.15706703 12.98828125 0.1953125 C12.65828125 0.8553125 12.32828125 1.5153125 11.98828125 2.1953125 C12.64828125 2.5253125 13.30828125 2.8553125 13.98828125 3.1953125 C13.98828125 3.8553125 13.98828125 4.5153125 13.98828125 5.1953125 C15.65494792 5.52864583 17.32161458 5.86197917 18.98828125 6.1953125 C20.65494792 6.52864583 22.32161458 6.86197917 23.98828125 7.1953125 C23.65828125 6.2053125 23.32828125 5.2153125 22.98828125 4.1953125 C26.47158341 4.84036846 29.08260991 6.17748518 31.98828125 8.1953125 C31.98828125 8.8553125 31.98828125 9.5153125 31.98828125 10.1953125 C33.30828125 10.8553125 34.62828125 11.5153125 35.98828125 12.1953125 C35.65828125 13.1853125 35.32828125 14.1753125 34.98828125 15.1953125 C34.32828125 15.1953125 33.66828125 15.1953125 32.98828125 15.1953125 C32.65828125 17.5053125 32.32828125 19.8153125 31.98828125 22.1953125 C30.99828125 22.1953125 30.00828125 22.1953125 28.98828125 22.1953125 C27.38747974 18.19330872 28.69548433 15.14975014 29.98828125 11.1953125 C29.06015625 10.97875 29.06015625 10.97875 28.11328125 10.7578125 C25.98828125 10.1953125 25.98828125 10.1953125 23.98828125 9.1953125 C23.98828125 9.8553125 23.98828125 10.5153125 23.98828125 11.1953125 C24.64828125 11.1953125 25.30828125 11.1953125 25.98828125 11.1953125 C26.48328125 13.1753125 26.48328125 13.1753125 26.98828125 15.1953125 C24.98828125 16.1953125 24.98828125 16.1953125 23.078125 15.7421875 C22.36785156 15.47921875 21.65757812 15.21625 20.92578125 14.9453125 C20.21292969 14.69265625 19.50007812 14.44 18.765625 14.1796875 C16.98828125 13.1953125 16.98828125 13.1953125 15.98828125 10.1953125 C13.34828125 10.1953125 10.70828125 10.1953125 7.98828125 10.1953125 C7.98828125 9.2053125 7.98828125 8.2153125 7.98828125 7.1953125 C6.03921875 7.47375 6.03921875 7.47375 4.05078125 7.7578125 C1.8359375 8.07421875 1.8359375 8.07421875 -0.01171875 8.1953125 C-0.34171875 7.8653125 -0.67171875 7.5353125 -1.01171875 7.1953125 C-3.01130239 7.15450467 -5.01217129 7.15276894 -7.01171875 7.1953125 C-7.19921875 4.8203125 -7.19921875 4.8203125 -7.01171875 2.1953125 C-3.96490814 0.16410543 -3.41053551 -0.05128625 0 0 Z " fill="#39E478" transform="translate(504.01171875,50.8046875)"/>
<path d="M0 0 C2 2 2 2 2.24050903 4.78408813 C2.2338472 6.562798 2.2338472 6.562798 2.22705078 8.37744141 C2.22734283 9.03122269 2.22763489 9.68500397 2.22793579 10.3585968 C2.22654065 12.52305296 2.2109712 14.68716636 2.1953125 16.8515625 C2.19158302 18.35085868 2.18873574 19.8501573 2.18673706 21.34945679 C2.17909548 25.29836743 2.1594426 29.24713129 2.1373291 33.19598389 C2.1168819 37.22438572 2.10773776 41.25281124 2.09765625 45.28125 C2.07619709 53.18757492 2.04101078 61.0937523 2 69 C-3.28 69 -8.56 69 -14 69 C-14 46.89 -14 24.78 -14 2 C-13.34 2 -12.68 2 -12 2 C-12 23.45 -12 44.9 -12 67 C-3.97949852 66.63379316 -3.97949852 66.63379316 -1 65 C-0.67 43.55 -0.34 22.1 0 0 Z " fill="#44B871" transform="translate(429,78)"/>
<path d="M0 0 C0.99 0.33 1.98 0.66 3 1 C2.67 6.61 2.34 12.22 2 18 C26.75 17.67 51.5 17.34 77 17 C77 14.03 77 11.06 77 8 C57.53 8 38.06 8 18 8 C18 7.67 18 7.34 18 7 C38.13 7 58.26 7 79 7 C79 11.29 79 15.58 79 20 C52.93 20 26.86 20 0 20 C0 13.4 0 6.8 0 0 Z " fill="#51CB80" transform="translate(187,127)"/>
<path d="M0 0 C4.39383706 1.59623144 8.28995807 3.78024333 12.3125 6.125 C12.95767578 6.49753906 13.60285156 6.87007813 14.26757812 7.25390625 C15.84675945 8.16632213 17.42361864 9.08275509 19 10 C19 10.99 19 11.98 19 13 C18.01 13 17.02 13 16 13 C14.97895449 13.97850195 13.9793879 14.97980427 13 16 C12.01 16.33 11.02 16.66 10 17 C10.99 17.66 11.98 18.32 13 19 C13.1875 21.625 13.1875 21.625 13 24 C12.67 23.34 12.34 22.68 12 22 C10.34709521 21.2999086 8.67777537 20.63819434 7 20 C5.43535065 19.16289855 3.88711341 18.29450172 2.35546875 17.3984375 C1.51435547 16.90859375 0.67324219 16.41875 -0.19335938 15.9140625 C-1.05767578 15.40617188 -1.92199219 14.89828125 -2.8125 14.375 C-3.69615234 13.859375 -4.57980469 13.34375 -5.49023438 12.8125 C-7.66194789 11.54468886 -9.8317818 10.27377652 -12 9 C-11.01 8.34 -10.02 7.68 -9 7 C-8.01 7.33 -7.02 7.66 -6 8 C-6 8.66 -6 9.32 -6 10 C-5.21625 9.814375 -4.4325 9.62875 -3.625 9.4375 C-1 9 -1 9 1 10 C1.66 8.68 2.32 7.36 3 6 C3.66 6 4.32 6 5 6 C5 5.34 5 4.68 5 4 C4.360625 3.896875 3.72125 3.79375 3.0625 3.6875 C2.381875 3.460625 1.70125 3.23375 1 3 C0.67 2.01 0.34 1.02 0 0 Z " fill="#030C04" transform="translate(134,114)"/>
<path d="M0 0 C0.33 0 0.66 0 1 0 C1 19.14 1 38.28 1 58 C0.67 58 0.34 58 0 58 C0 42.49 0 26.98 0 11 C-0.99 11 -1.98 11 -3 11 C-2.97905273 12.00901367 -2.95810547 13.01802734 -2.93652344 14.05761719 C-2.86403215 17.80714687 -2.8181678 21.55661482 -2.78027344 25.30664062 C-2.76017856 26.92849143 -2.73289746 28.55026997 -2.69824219 30.171875 C-2.6496273 32.5053898 -2.62701111 34.83794557 -2.609375 37.171875 C-2.58872986 37.89493835 -2.56808472 38.61800171 -2.54681396 39.36297607 C-2.54522257 42.94689971 -2.72737864 44.66477962 -5.02441406 47.48925781 C-5.67635742 47.98780273 -6.32830078 48.48634766 -7 49 C-7.12375 48.38125 -7.2475 47.7625 -7.375 47.125 C-7.87197356 44.80879168 -7.87197356 44.80879168 -10 43 C-9.01 43 -8.02 43 -7 43 C-7 32.44 -7 21.88 -7 11 C-6.01 10.67 -5.02 10.34 -4 10 C-3.67 8.02 -3.34 6.04 -3 4 C-2.01 4 -1.02 4 0 4 C0 2.68 0 1.36 0 0 Z " fill="#45E482" transform="translate(157,69)"/>
<path d="M0 0 C0 20.13 0 40.26 0 61 C-15.75 53.125 -15.75 53.125 -21 50 C-21 49.34 -21 48.68 -21 48 C-13.74750831 47.38538206 -13.74750831 47.38538206 -10.1875 50.3125 C-9.465625 51.199375 -8.74375 52.08625 -8 53 C-5.81762951 55.35024514 -5.15831622 55.94722793 -2 57 C-2 39.18 -2 21.36 -2 3 C-4.31 4.32 -6.62 5.64 -9 7 C-9.99 7 -10.98 7 -12 7 C-12.33 7.66 -12.66 8.32 -13 9 C-13.66 8.34 -14.32 7.68 -15 7 C-12.87767021 5.82823482 -10.75242209 4.66245215 -8.625 3.5 C-7.72007813 2.99919922 -7.72007813 2.99919922 -6.796875 2.48828125 C-2.2265625 0 -2.2265625 0 0 0 Z " fill="#50CF7D" transform="translate(81,107)"/>
<path d="M0 0 C24.42 0 48.84 0 74 0 C74 6.6 74 13.2 74 20 C71.69 22.31 69.38 24.62 67 27 C67 24 67 24 68.9375 21.3125 C72.10309483 15.38478495 72.10309483 15.38478495 72 1 C48.57 1 25.14 1 1 1 C1 4.3 1 7.6 1 11 C19.81 11 38.62 11 58 11 C58 11.33 58 11.66 58 12 C38.86 12 19.72 12 0 12 C0 8.04 0 4.08 0 0 Z " fill="#52DA85" transform="translate(190,52)"/>
<path d="M0 0 C4.2927366 1.29544122 7.90860969 2.94516581 11.75 5.25 C12.78511719 5.86617187 13.82023438 6.48234375 14.88671875 7.1171875 C16.89040018 8.32894967 18.89308623 9.54236006 20.89453125 10.7578125 C21.77496094 11.29148437 22.65539062 11.82515625 23.5625 12.375 C24.34753906 12.85710938 25.13257813 13.33921875 25.94140625 13.8359375 C28.08485147 15.13478073 28.08485147 15.13478073 31 16 C29.52604425 19.79253782 27.56377551 21.28316326 24.125 23.375 C22.82949219 24.19097656 22.82949219 24.19097656 21.5078125 25.0234375 C19 26 19 26 16.6796875 25.1640625 C16.12539062 24.77992187 15.57109375 24.39578125 15 24 C15 23.01 15 22.02 15 21 C14.34 21 13.68 21 13 21 C13 17 13 17 15 14.75 C15.66 14.1725 16.32 13.595 17 13 C16.67 12.01 16.34 11.02 16 10 C15.34 10 14.68 10 14 10 C14 9.34 14 8.68 14 8 C13.2575 7.896875 12.515 7.79375 11.75 7.6875 C8.78921557 6.94730389 7.38028854 5.84280403 5 4 C3.9171875 3.7525 3.9171875 3.7525 2.8125 3.5 C2.214375 3.335 1.61625 3.17 1 3 C0.67 2.01 0.34 1.02 0 0 Z " fill="#43DB7A" transform="translate(115,41)"/>
<path d="M0 0 C0 20.13 0 40.26 0 61 C-0.66 60.67 -1.32 60.34 -2 60 C-2.01213028 59.06705612 -2.01213028 59.06705612 -2.02450562 58.11526489 C-2.11036507 51.65914984 -2.20985976 45.20334846 -2.31738281 38.74755859 C-2.35573647 36.33615372 -2.3905779 33.92469038 -2.421875 31.51318359 C-2.46738703 28.05284687 -2.52540404 24.59291492 -2.5859375 21.1328125 C-2.59748871 20.04944611 -2.60903992 18.96607971 -2.62094116 17.84988403 C-2.64081085 16.8489975 -2.66068054 15.84811096 -2.68115234 14.81689453 C-2.69447601 13.93309113 -2.70779968 13.04928772 -2.7215271 12.13870239 C-2.80669004 9.7867175 -2.80669004 9.7867175 -5 8 C-5.9075 8.33 -6.815 8.66 -7.75 9 C-11 10 -11 10 -15 10 C-15 9.34 -15 8.68 -15 8 C-14.39671875 7.67386719 -13.7934375 7.34773438 -13.171875 7.01171875 C-12.37265625 6.57472656 -11.5734375 6.13773438 -10.75 5.6875 C-9.96109375 5.25824219 -9.1721875 4.82898437 -8.359375 4.38671875 C-5.96827026 3.0465516 -5.96827026 3.0465516 -3.828125 1.33203125 C-2 0 -2 0 0 0 Z " fill="#54D280" transform="translate(81,28)"/>
<path d="M0 0 C3.9790243 -0.08802152 7.95779388 -0.14073233 11.9375 -0.1875 C13.05447266 -0.21263672 14.17144531 -0.23777344 15.32226562 -0.26367188 C24.80040125 -0.34705723 31.83788616 1.1950379 39.8125 6.4375 C40.70582031 7.01371094 41.59914063 7.58992188 42.51953125 8.18359375 C47.3568546 11.72588565 50.06121335 15.46265683 52.6875 20.8125 C52.99494141 21.40353516 53.30238281 21.99457031 53.61914062 22.60351562 C55.71776943 26.8145498 56.55686081 30.38544394 57 35 C56.34 35 55.68 35 55 35 C55 33.35 55 31.7 55 30 C54.34 30 53.68 30 53 30 C52.35309078 28.3962669 51.70751236 26.79199694 51.0625 25.1875 C50.70285156 24.29417969 50.34320312 23.40085937 49.97265625 22.48046875 C49.26386514 20.6729091 48.6139753 18.84192591 48 17 C47.01 16.67 46.02 16.34 45 16 C44.29848848 14.6846659 43.63474075 13.34882408 43 12 C40.73643207 9.30527627 38.08679414 7.66211992 35 6 C34.34 6 33.68 6 33 6 C33 6.66 33 7.32 33 8 C29.14354879 8.22036864 26.50776784 7.60355101 23 6 C23 5.34 23 4.68 23 4 C20.525 3.505 20.525 3.505 18 3 C18 2.67 18 2.34 18 2 C12.06 1.67 6.12 1.34 0 1 C0 0.67 0 0.34 0 0 Z " fill="#45DE7C" transform="translate(495,50)"/>
<path d="M0 0 C4.26866909 0.47429657 6.10933148 3.03521178 9 6 C9.99 6.33 10.98 6.66 12 7 C12 7.66 12 8.32 12 9 C13.5778125 9.1546875 13.5778125 9.1546875 15.1875 9.3125 C19 10 19 10 21.38671875 11.47265625 C24.23518082 13.13745246 26.37631691 13.6433893 29.625 14.125 C31.18347656 14.35703125 31.18347656 14.35703125 32.7734375 14.59375 C37.50642737 15.18967124 42.24323998 15.64417937 47 16 C46.505 14.515 46.505 14.515 46 13 C46.78246094 12.95101562 47.56492187 12.90203125 48.37109375 12.8515625 C49.88896484 12.73941406 49.88896484 12.73941406 51.4375 12.625 C52.44683594 12.55539063 53.45617187 12.48578125 54.49609375 12.4140625 C55.73552734 12.20910156 55.73552734 12.20910156 57 12 C57.33 11.34 57.66 10.68 58 10 C60.475 10.495 60.475 10.495 63 11 C58.35591948 16.26133172 50.72313723 17.41025112 44 18 C29.07215549 18.83512417 15.41696324 15.36431413 3.6875 5.75 C1 3 1 3 0 0 Z " fill="#49CC7A" transform="translate(468,132)"/>
<path d="M0 0 C12.87 0.495 12.87 0.495 26 1 C26.495 1.99 26.495 1.99 27 3 C29.11327425 3.90725434 29.11327425 3.90725434 31.5625 4.625 C32.38878906 4.88539062 33.21507812 5.14578125 34.06640625 5.4140625 C34.70449219 5.60742188 35.34257813 5.80078125 36 6 C36 4.68 36 3.36 36 2 C35.34 2 34.68 2 34 2 C34 1.34 34 0.68 34 0 C35.98 0.66 37.96 1.32 40 2 C40.07427838 5.34252724 40.06546953 7.8035914 39 11 C38.65772583 12.33106622 38.32248257 13.66400079 38 15 C37.505 14.278125 37.01 13.55625 36.5 12.8125 C30.76121114 6.35636254 23.88616032 3.49567666 15.40234375 2.78125 C6.44866368 2.47901607 -1.17127669 4.67360028 -9 9 C-9 8.01 -9 7.02 -9 6 C-7.88625 5.7525 -6.7725 5.505 -5.625 5.25 C-1.58116476 4.32862925 -1.58116476 4.32862925 0 0 Z " fill="#43D778" transform="translate(494,60)"/>
<path d="M0 0 C1.1171875 3.71875 1.1171875 3.71875 0.0625 6.25 C-0.288125 6.8275 -0.63875 7.405 -1 8 C-1.66 8 -2.32 8 -3 8 C-2.938125 9.1446875 -2.938125 9.1446875 -2.875 10.3125 C-3 13 -3 13 -5 16 C-5.49834354 19.16293484 -5.49834354 19.16293484 -5.6875 22.625 C-5.77386719 23.79289062 -5.86023438 24.96078125 -5.94921875 26.1640625 C-5.96597656 27.09992188 -5.98273438 28.03578125 -6 29 C-5.67 29.33 -5.34 29.66 -5 30 C-4.92680379 32.69654854 -4.90757463 35.36691458 -4.9375 38.0625 C-4.94201172 38.82111328 -4.94652344 39.57972656 -4.95117188 40.36132812 C-4.9629932 42.24091871 -4.98092922 44.12046899 -5 46 C-6.96899414 44.81079102 -6.96899414 44.81079102 -9 43 C-9.50170898 40.70678711 -9.50170898 40.70678711 -9.49609375 38.02734375 C-9.49673828 37.04443359 -9.49738281 36.06152344 -9.49804688 35.04882812 C-9.47806641 34.02208984 -9.45808594 32.99535156 -9.4375 31.9375 C-9.44458984 30.93783203 -9.45167969 29.93816406 -9.45898438 28.90820312 C-9.38294791 19.90665583 -7.73027075 12.02486561 -2.8125 4.375 C-2.28269531 3.53710938 -1.75289063 2.69921875 -1.20703125 1.8359375 C-0.80871094 1.23007813 -0.41039062 0.62421875 0 0 Z " fill="#44DF7C" transform="translate(467,66)"/>
<path d="M0 0 C2.125 1.6875 2.125 1.6875 4.125 4.6875 C4.390625 7.02734375 4.390625 7.02734375 4.375 9.625 C4.38015625 10.47964844 4.3853125 11.33429687 4.390625 12.21484375 C3.99270201 15.9190386 2.91810424 17.99353379 0.125 20.4375 C-4.19816179 22.23881741 -8.25373401 21.92977996 -12.875 21.6875 C-13.205 21.0275 -13.535 20.3675 -13.875 19.6875 C-12.64523437 19.66623047 -12.64523437 19.66623047 -11.390625 19.64453125 C-4.77153293 19.51015613 -4.77153293 19.51015613 0.875 16.5 C2.28719374 13.32256407 2.44508027 11.12836289 2.125 7.6875 C1.465 7.3575 0.805 7.0275 0.125 6.6875 C0.455 8.0075 0.785 9.3275 1.125 10.6875 C0.135 11.3475 -0.855 12.0075 -1.875 12.6875 C-4.4974715 10.0650285 -4.51717954 8.33726873 -4.875 4.6875 C-4.545 3.0375 -4.215 1.3875 -3.875 -0.3125 C-8.825 1.1725 -8.825 1.1725 -13.875 2.6875 C-13.875 1.6975 -13.875 0.7075 -13.875 -0.3125 C-8.9981798 -1.93810673 -4.6477893 -2.12181686 0 0 Z " fill="#40DA74" transform="translate(308.875,14.3125)"/>
<path d="M0 0 C1.65 0 3.3 0 5 0 C2.42561277 2.1200836 -0.09574418 4.05907619 -2.9375 5.8125 C-10.11076304 10.93625931 -14.40789955 17.26174755 -16 26 C-16.45457976 33.65844407 -16.25115446 41.33689097 -16 49 C-16.99 49.495 -16.99 49.495 -18 50 C-18 47.69 -18 45.38 -18 43 C-18.66 43 -19.32 43 -20 43 C-20.64142933 32.56608288 -19.7266248 25.48189582 -15 16 C-14.65710938 15.08476563 -14.31421875 14.16953125 -13.9609375 13.2265625 C-13 11 -13 11 -11 10 C-10.690625 9.175 -10.38125 8.35 -10.0625 7.5 C-9.711875 6.675 -9.36125 5.85 -9 5 C-8.01 4.67 -7.02 4.34 -6 4 C-5.319375 3.649375 -4.63875 3.29875 -3.9375 2.9375 C-2 2 -2 2 0 2 C0 1.34 0 0.68 0 0 Z " fill="#4AD380" transform="translate(607,63)"/>
<path d="M0 0 C0.71220703 0.05534912 1.42441406 0.11069824 2.15820312 0.16772461 C7.67300701 0.63748109 13.06091766 1.48127889 18.4375 2.8125 C18.4375 3.4725 18.4375 4.1325 18.4375 4.8125 C19.241875 5.06 20.04625 5.3075 20.875 5.5625 C22.1434375 6.18125 22.1434375 6.18125 23.4375 6.8125 C24.09765625 8.890625 24.09765625 8.890625 24.4375 10.8125 C23.73882812 10.39097656 23.04015625 9.96945313 22.3203125 9.53515625 C20.95519531 8.71337891 20.95519531 8.71337891 19.5625 7.875 C18.65757812 7.32972656 17.75265625 6.78445312 16.8203125 6.22265625 C10.04212379 2.21130195 0.59188973 2.80494111 -6.9609375 4.63671875 C-10.84520822 6.0373472 -14.12116473 7.51827649 -17.5625 9.8125 C-17.5625 8.8225 -17.5625 7.8325 -17.5625 6.8125 C-16.9025 6.8125 -16.2425 6.8125 -15.5625 6.8125 C-15.5625 6.1525 -15.5625 5.4925 -15.5625 4.8125 C-14.799375 4.544375 -14.03625 4.27625 -13.25 4 C-10.55448776 3.06978631 -10.55448776 3.06978631 -9.3671875 1.2265625 C-6.49723126 -1.02219109 -3.44488035 -0.32087009 0 0 Z " fill="#48CD78" transform="translate(385.5625,60.1875)"/>
<path d="M0 0 C3.25723804 2.63681174 4.72787496 6.10032514 6 10 C6.36076355 13.49925232 6.36076355 13.49925232 6.34057617 17.22045898 C6.34101425 17.90423111 6.34145233 18.58800323 6.34190369 19.29249573 C6.33983239 21.52733042 6.31658188 23.76139196 6.29296875 25.99609375 C6.28736685 27.55550222 6.28309956 29.11491601 6.28010559 30.67433167 C6.26870349 34.75970277 6.2392769 38.84474906 6.20599365 42.92999268 C6.17519224 47.10627856 6.16157882 51.28261741 6.14648438 55.45898438 C6.11440217 63.63947124 6.06326272 71.8196951 6 80 C5.67 80 5.34 80 5 80 C4.99453156 78.7554454 4.99453156 78.7554454 4.98895264 77.48574829 C4.95093665 69.63020735 4.89393089 61.77507585 4.81609726 53.9198246 C4.77674722 49.8822439 4.74449819 45.84487722 4.72900391 41.80712891 C4.71375429 37.90351806 4.67916429 34.00049609 4.63169098 30.0971489 C4.61696208 28.61502606 4.60896391 27.1328191 4.60811615 25.65062332 C4.59915299 17.83067957 4.29683268 10.99808036 0.85357666 3.82553101 C0 2 0 2 0 0 Z " fill="#36E37F" transform="translate(423,64)"/>
<path d="M0 0 C4.16201343 1.49289612 5.35459652 3.79617922 7.25 7.6875 C10.61864725 15.25426041 10.61277995 21.79555729 10 30 C9.01 30 8.02 30 7 30 C5.76078698 27.02588876 4.69941596 24.14737182 4 21 C5.32 21.33 6.64 21.66 8 22 C8 20.35 8 18.7 8 17 C7.34 17 6.68 17 6 17 C5.87625 15.96875 5.7525 14.9375 5.625 13.875 C5.0518248 10.32131377 4.48315636 7.27855616 3 4 C0.96756452 3.03122943 0.96756452 3.03122943 -1 3 C-0.67 2.01 -0.34 1.02 0 0 Z " fill="#42DD78" transform="translate(661,66)"/>
<path d="M0 0 C0.66 0 1.32 0 2 0 C4.04169485 2.90548882 5 4.40142046 5 8 C6.65 8 8.3 8 10 8 C10 9.65 10 11.3 10 13 C11.32 13 12.64 13 14 13 C14.2475 13.969375 14.495 14.93875 14.75 15.9375 C15.36875 17.4534375 15.36875 17.4534375 16 19 C17.92638012 19.75243555 17.92638012 19.75243555 20 20 C21 21 22 22 23 23 C25.59915538 24.19027984 25.59915538 24.19027984 28 25 C25.5129453 25.91154493 24.36559797 26.13959195 21.8515625 25.1796875 C12.11621035 19.47511273 4.83138584 13.14001646 0.5625 2.375 C0.376875 1.59125 0.19125 0.8075 0 0 Z " fill="#48CB76" transform="translate(578,120)"/>
<path d="M0 0 C0.66 0.99 1.32 1.98 2 3 C4.62293289 3.4781212 4.62293289 3.4781212 7.73486328 3.43237305 C9.53650436 3.46206429 9.53650436 3.46206429 11.37454224 3.49235535 C13.32769852 3.50194023 13.32769852 3.50194023 15.3203125 3.51171875 C16.6626857 3.52855912 18.00504306 3.54670849 19.34738159 3.56611633 C22.88188734 3.61369307 26.41632893 3.64345225 29.9510498 3.66955566 C33.55733925 3.69932289 37.16340739 3.74586623 40.76953125 3.79101562 C47.84624177 3.87713573 54.92298728 3.94289169 62 4 C62 8.62 62 13.24 62 18 C61.67 18 61.34 18 61 18 C61 13.71 61 9.42 61 5 C40.21 5 19.42 5 -2 5 C-1 1 -1 1 0 0 Z " fill="#043E10" transform="translate(205,129)"/>
<path d="M0 0 C0.99 0 1.98 0 3 0 C3.76148334 4.7276652 4.12243894 9.25028717 4.11352539 14.03686523 C4.11367142 14.70113022 4.11381744 15.3653952 4.1139679 16.04978943 C4.11327785 18.21942549 4.10552854 20.38897291 4.09765625 22.55859375 C4.09578884 24.07316542 4.09436646 25.58773769 4.09336853 27.10231018 C4.0895688 31.06918027 4.07976051 35.03601316 4.06866455 39.00286865 C4.05839546 43.05854794 4.05385918 47.1142333 4.04882812 51.16992188 C4.03813573 59.11329823 4.02109021 67.05664447 4 75 C3.67 75 3.34 75 3 75 C2.99191315 74.17838379 2.98382629 73.35676758 2.97549438 72.51025391 C2.89734175 64.74248544 2.80998978 56.97489925 2.71247292 49.20735168 C2.66266635 45.21460398 2.61633582 41.22188075 2.578125 37.22900391 C2.54107348 33.37094129 2.49466155 29.51309152 2.44193649 25.6552124 C2.42349751 24.18816893 2.40835142 22.72108002 2.39665604 21.25396729 C2.33625967 13.93528458 2.25540636 7.02737141 0 0 Z " fill="#001D00" transform="translate(428,72)"/>
<path d="M0 0 C-0.99 0.495 -0.99 0.495 -2 1 C-2.268125 1.66 -2.53625 2.32 -2.8125 3 C-4 5 -4 5 -6.625 5.75 C-7.800625 5.87375 -7.800625 5.87375 -9 6 C-9 6.99 -9 7.98 -9 9 C-7.73542969 9.58007812 -7.73542969 9.58007812 -6.4453125 10.171875 C-5.34960938 10.69265625 -4.25390625 11.2134375 -3.125 11.75 C-2.03445312 12.26046875 -0.94390625 12.7709375 0.1796875 13.296875 C3.04202519 15.02537809 3.93521458 15.89999181 5 19 C2.41412997 17.73412642 -0.16865501 16.46254151 -2.75 15.1875 C-3.47960938 14.83107422 -4.20921875 14.47464844 -4.9609375 14.10742188 C-12.32006505 10.46130868 -12.32006505 10.46130868 -15 8 C-15 7.34 -15 6.68 -15 6 C-12.98828125 4.4921875 -12.98828125 4.4921875 -10.3125 2.875 C-9.44238281 2.33617187 -8.57226562 1.79734375 -7.67578125 1.2421875 C-4.84576747 -0.07159992 -3.0766773 -0.25500388 0 0 Z " fill="#4EC479" transform="translate(43,130)"/>
<path d="M0 0 C10.96507499 5.81820306 16.43772115 12.33654701 21 24 C21.48661154 26.34546762 21.76199081 28.6107539 22 31 C21.34 31 20.68 31 20 31 C20 29.35 20 27.7 20 26 C19.34 26 18.68 26 18 26 C17.35309078 24.3962669 16.70751236 22.79199694 16.0625 21.1875 C15.70285156 20.29417969 15.34320312 19.40085937 14.97265625 18.48046875 C14.26386514 16.6729091 13.6139753 14.84192591 13 13 C12.01 12.67 11.02 12.34 10 12 C9.29848848 10.6846659 8.63474075 9.34882408 8 8 C6.24383709 5.90932987 4.70132353 4.82635089 2.3125 3.4375 C1.549375 2.963125 0.78625 2.48875 0 2 C0 1.34 0 0.68 0 0 Z " fill="#51CC84" transform="translate(530,54)"/>
<path d="M0 0 C-1.75 4.875 -1.75 4.875 -4 6 C-4.33 6.66 -4.66 7.32 -5 8 C-5.99 8 -6.98 8 -8 8 C-8.226875 8.928125 -8.45375 9.85625 -8.6875 10.8125 C-10.24155353 14.58663 -11.45550942 15.18452921 -15 17 C-16.75149165 18.58245275 -16.75149165 18.58245275 -18 20 C-16.87709571 12.62091469 -12.33483945 7.99431778 -7 3 C-2.54565217 0 -2.54565217 0 0 0 Z " fill="#080C04" transform="translate(610,65)"/>
<path d="M0 0 C2.12560437 0.30836232 4.25047065 0.62181614 6.375 0.9375 C8.15003906 1.19853516 8.15003906 1.19853516 9.9609375 1.46484375 C13 2 13 2 15 3 C15.32613618 7.67461851 14.70582788 10.16674383 12 14 C10.68 13.67 9.36 13.34 8 13 C8.350625 11.906875 8.70125 10.81375 9.0625 9.6875 C10.33039454 6.09079627 10.33039454 6.09079627 9 3 C7.68 3.33 6.36 3.66 5 4 C5 3.34 5 2.68 5 2 C3.68 2 2.36 2 1 2 C1 3.32 1 4.64 1 6 C0.34 5.67 -0.32 5.34 -1 5 C-0.67 3.35 -0.34 1.7 0 0 Z " fill="#4ACA7B" transform="translate(537,110)"/>
<path d="M0 0 C0 0.66 0 1.32 0 2 C-0.61875 2.226875 -1.2375 2.45375 -1.875 2.6875 C-4.23871582 3.85311983 -4.23871582 3.85311983 -5 6.5625 C-6 9 -6 9 -7.9375 9.875 C-10 10 -10 10 -13 9 C-13.144375 9.804375 -13.28875 10.60875 -13.4375 11.4375 C-14 14 -14 14 -15 15 C-16.66617115 15.04063832 -18.33388095 15.042721 -20 15 C-18.72287807 11.16863422 -16.93499548 10.02833642 -13.8125 7.5 C-12.87019531 6.7265625 -11.92789063 5.953125 -10.95703125 5.15625 C-3.88586957 0 -3.88586957 0 0 0 Z " fill="#3FD574" transform="translate(604,52)"/>
<path d="M0 0 C0.99847342 3.10636175 1.0004307 4.90775964 0 8 C-0.33 9.051875 -0.66 10.10375 -1 11.1875 C-2 14 -2 14 -3 15 C-3.90712098 21.38790787 -4.12748379 27.61910693 -4.0625 34.0625 C-4.05798828 34.92810547 -4.05347656 35.79371094 -4.04882812 36.68554688 C-4.03719913 38.79039539 -4.01927073 40.89520758 -4 43 C-7.02710093 39.97289907 -6.29110049 37.03816295 -6.32885742 32.89770508 C-6.32345947 31.8177124 -6.31806152 30.73771973 -6.3125 29.625 C-6.30903564 28.53405029 -6.30557129 27.44310059 -6.30200195 26.3190918 C-6.17005373 16.56002628 -5.32648983 8.40003858 0 0 Z " fill="#4EBF78" transform="translate(581,71)"/>
<path d="M0 0 C0.33 0 0.66 0 1 0 C1 6.27 1 12.54 1 19 C-0.65 19.33 -2.3 19.66 -4 20 C-4 19.34 -4 18.68 -4 18 C-4.66 18 -5.32 18 -6 18 C-6 18.66 -6 19.32 -6 20 C-6.66 19.67 -7.32 19.34 -8 19 C-7.25943359 17.57107422 -7.25943359 17.57107422 -6.50390625 16.11328125 C-5.85644963 14.84651829 -5.20933206 13.57958199 -4.5625 12.3125 C-4.07426758 11.37374023 -4.07426758 11.37374023 -3.57617188 10.41601562 C-1.82247687 6.96286361 -0.52239503 3.84806481 0 0 Z " fill="#041005" transform="translate(671,112)"/>
<path d="M0 0 C0.66 0 1.32 0 2 0 C1.855625 0.53625 1.71125 1.0725 1.5625 1.625 C-1.60324736 14.99148883 -0.61363851 28.14772128 4 41 C3.01 41 2.02 41 1 41 C-1.54110232 36.56199482 -2.37655375 33.38076075 -2.36328125 28.28125 C-2.36263672 27.01925781 -2.36199219 25.75726563 -2.36132812 24.45703125 C-2.34521484 23.15121094 -2.32910156 21.84539062 -2.3125 20.5 C-2.31572266 19.19417969 -2.31894531 17.88835937 -2.32226562 16.54296875 C-2.28862383 10.55472839 -2.14834744 5.64910071 0 0 Z " fill="#4EC77C" transform="translate(474,80)"/>
<path d="M0 0 C1.32 0.33 2.64 0.66 4 1 C3.18660156 1.46148437 2.37320313 1.92296875 1.53515625 2.3984375 C-8.02998042 7.84271102 -17.52427374 13.40175011 -27 19 C-27.66 18.34 -28.32 17.68 -29 17 C-28.67 16.34 -28.34 15.68 -28 15 C-26.88625 14.690625 -25.7725 14.38125 -24.625 14.0625 C-21.09176645 13.34159541 -21.09176645 13.34159541 -19.4375 11.4375 C-17.27088612 9.27088612 -14.95710642 9.32856738 -12 9 C-12 8.34 -12 7.68 -12 7 C-11.01 6.67 -10.02 6.34 -9 6 C-8.38125 5.319375 -7.7625 4.63875 -7.125 3.9375 C-5 2 -5 2 -2.25 1.75 C-1.5075 1.8325 -0.765 1.915 0 2 C0 1.34 0 0.68 0 0 Z " fill="#4ECC7B" transform="translate(128,67)"/>
<path d="M0 0 C0.33 0 0.66 0 1 0 C1.01030746 0.69491043 1.02061493 1.38982086 1.03123474 2.10578918 C1.12919919 8.65362067 1.23171217 15.20136328 1.33933926 21.74904346 C1.39451122 25.11529613 1.44792197 28.48155757 1.49731445 31.84790039 C1.55496637 35.71769614 1.61867568 39.58735144 1.68359375 43.45703125 C1.70030624 44.66647903 1.71701874 45.87592682 1.73423767 47.12202454 C1.75418289 48.24296005 1.77412811 49.36389557 1.79467773 50.51879883 C1.81022202 51.50697098 1.8257663 52.49514313 1.84178162 53.51325989 C1.90213783 56.13199956 1.90213783 56.13199956 3 59 C1.515 59.495 1.515 59.495 0 60 C0 40.2 0 20.4 0 0 Z " fill="#5FE08C" transform="translate(94,107)"/>
<path d="M0 0 C0 0.66 0 1.32 0 2 C-1.32 2.33 -2.64 2.66 -4 3 C-4 3.66 -4 4.32 -4 5 C-5.98 5.33 -7.96 5.66 -10 6 C-10 7.32 -10 8.64 -10 10 C-7.69 10.33 -5.38 10.66 -3 11 C-3 11.66 -3 12.32 -3 13 C-2.34 13 -1.68 13 -1 13 C-1 13.66 -1 14.32 -1 15 C-0.01 15.33 0.98 15.66 2 16 C1.34 16.33 0.68 16.66 0 17 C-1.9453125 16.22265625 -1.9453125 16.22265625 -4.125 15.0625 C-4.84945312 14.68222656 -5.57390625 14.30195312 -6.3203125 13.91015625 C-6.87460938 13.60980469 -7.42890625 13.30945313 -8 13 C-8 12.34 -8 11.68 -8 11 C-8.928125 10.7834375 -8.928125 10.7834375 -9.875 10.5625 C-12 10 -12 10 -14 9 C-14 8.34 -14 7.68 -14 7 C-11.4453125 5.2734375 -11.4453125 5.2734375 -8.125 3.375 C-7.03445312 2.74335937 -5.94390625 2.11171875 -4.8203125 1.4609375 C-2 0 -2 0 0 0 Z " fill="#49C779" transform="translate(122,90)"/>
<path d="M0 0 C2.61498336 1.42635456 5.22979692 2.8530076 7.84375 4.28125 C9.88221967 5.39130774 11.9236922 6.49587687 13.96875 7.59375 C18.80907427 10.20007845 23.5005256 12.83820718 28 16 C25 17 25 17 22.8125 16.0625 C22.214375 15.711875 21.61625 15.36125 21 15 C21 14.34 21 13.68 21 13 C20.01 13 19.02 13 18 13 C18 12.34 18 11.68 18 11 C15.36 10.67 12.72 10.34 10 10 C9.938125 9.071875 9.938125 9.071875 9.875 8.125 C9.58625 7.42375 9.2975 6.7225 9 6 C6.11681225 4.81664605 6.11681225 4.81664605 3 4 C2.01 3.34 1.02 2.68 0 2 C0 1.34 0 0.68 0 0 Z " fill="#4FCC7E" transform="translate(95,107)"/>
<path d="M0 0 C0 3.73675706 -1.26051811 5.72174568 -3 9 C-3.391875 9.78375 -3.78375 10.5675 -4.1875 11.375 C-4.455625 11.91125 -4.72375 12.4475 -5 13 C-5.66 13 -6.32 13 -7 13 C-7 12.01 -7 11.02 -7 10 C-7.99 10.66 -8.98 11.32 -10 12 C-10.33 10.68 -10.66 9.36 -11 8 C-9.8803014 6.99406757 -8.7540588 5.9954151 -7.625 5 C-6.68527344 4.1646875 -6.68527344 4.1646875 -5.7265625 3.3125 C-4 2 -4 2 -2 2 C-1.34 1.34 -0.68 0.68 0 0 Z " fill="#36E172" transform="translate(222,95)"/>
<path d="M0 0 C0.96679688 0.144375 1.93359375 0.28875 2.9296875 0.4375 C13.57274817 1.95492647 23.32519867 2.37739372 34 1 C33.67 1.99 33.34 2.98 33 4 C27.27600998 5.27845462 21.7513475 5.00327652 15.9375 4.75 C14.95716797 4.72292969 13.97683594 4.69585937 12.96679688 4.66796875 C3.94057075 4.28804613 3.94057075 4.28804613 0 1 C0 0.67 0 0.34 0 0 Z " fill="#001D04" transform="translate(487,147)"/>
<path d="M0 0 C0.66 0 1.32 0 2 0 C2.66 1.98 3.32 3.96 4 6 C5.32 6 6.64 6 8 6 C8.33 6.99 8.66 7.98 9 9 C8.01 9 7.02 9 6 9 C6 9.66 6 10.32 6 11 C6.66 11 7.32 11 8 11 C8.33 12.65 8.66 14.3 9 16 C8.01 16 7.02 16 6 16 C4.9901527 14.08850332 3.99245505 12.17058431 3 10.25 C2.443125 9.18265625 1.88625 8.1153125 1.3125 7.015625 C0 4 0 4 0 0 Z " fill="#46D27B" transform="translate(460,115)"/>
<path d="M0 0 C6.75 1.75 6.75 1.75 9 4 C9.66 4 10.32 4 11 4 C11 4.66 11 5.32 11 6 C13.97 6.33 16.94 6.66 20 7 C21 11 21 11 20 13 C17.79007241 11.7527532 15.58206337 10.50229753 13.375 9.25 C12.75753906 8.90195313 12.14007813 8.55390625 11.50390625 8.1953125 C7.55289262 5.94947317 3.71142923 3.62654992 0 1 C0 0.67 0 0.34 0 0 Z " fill="#3FCE74" transform="translate(41,66)"/>
<path d="M0 0 C0.69931641 -0.00128906 1.39863281 -0.00257812 2.11914062 -0.00390625 C7.79877123 0.1125447 11.38521842 1.25681228 16.0625 4.375 C14.25 5 14.25 5 12.0625 5.375 C11.0725 4.715 10.0825 4.055 9.0625 3.375 C6.8712465 3.08424482 6.8712465 3.08424482 4.46484375 3.14453125 C3.58119141 3.14646484 2.69753906 3.14839844 1.78710938 3.15039062 C0.86736328 3.16263672 -0.05238281 3.17488281 -1 3.1875 C-2.38541992 3.1884668 -2.38541992 3.1884668 -3.79882812 3.18945312 C-8.52528865 3.04796989 -8.52528865 3.04796989 -12.9375 4.375 C-13.5975 3.715 -14.2575 3.055 -14.9375 2.375 C-9.90541866 0.73908279 -5.31259776 -0.01018715 0 0 Z " fill="#04250A" transform="translate(389.9375,62.625)"/>
<path d="M0 0 C0.33 0 0.66 0 1 0 C1.33 2.97 1.66 5.94 2 9 C2.763125 8.484375 3.52625 7.96875 4.3125 7.4375 C5.199375 6.963125 6.08625 6.48875 7 6 C7.99 6.33 8.98 6.66 10 7 C9.57847656 7.55429687 9.15695312 8.10859375 8.72265625 8.6796875 C8.17480469 9.40414062 7.62695312 10.12859375 7.0625 10.875 C6.24458984 11.95394531 6.24458984 11.95394531 5.41015625 13.0546875 C3.96035376 14.94357079 3.96035376 14.94357079 3 17 C2.01 17 1.02 17 0 17 C0 11.39 0 5.78 0 0 Z " fill="#02270C" transform="translate(357,51)"/>
<path d="M0 0 C0.66 0.33 1.32 0.66 2 1 C1.01 2.485 1.01 2.485 0 4 C0 4.33 0 4.66 0 5 C0 6.66666667 0 8.33333333 0 10 C-0.99 9.34 -1.98 8.68 -3 8 C-5.02045442 8.60183749 -7.02111039 9.27306096 -9 10 C-10.32 10 -11.64 10 -13 10 C-13 9.34 -13 8.68 -13 8 C-12.39671875 7.67386719 -11.7934375 7.34773438 -11.171875 7.01171875 C-10.37265625 6.57472656 -9.5734375 6.13773438 -8.75 5.6875 C-7.96109375 5.25824219 -7.1721875 4.82898437 -6.359375 4.38671875 C-4.10272866 3.0603786 -2.06001403 1.61115776 0 0 Z " fill="#47CF78" transform="translate(79,28)"/>
<path d="M0 0 C2.31 0.33 4.62 0.66 7 1 C7 1.66 7 2.32 7 3 C8.32 3.33 9.64 3.66 11 4 C10.01 4 9.02 4 8 4 C7.67 6.31 7.34 8.62 7 11 C6.67 10.01 6.34 9.02 6 8 C5.01 8 4.02 8 3 8 C2.67 7.01 2.34 6.02 2 5 C1.34 4.67 0.68 4.34 0 4 C0 2.68 0 1.36 0 0 Z " fill="#38E473" transform="translate(539,112)"/>
<path d="M0 0 C4.84462354 4.15253446 7.72296162 9.04094211 10 15 C10 16.32 10 17.64 10 19 C11.98 18.67 13.96 18.34 16 18 C15.67 18.66 15.34 19.32 15 20 C13.02 20 11.04 20 9 20 C9 19.01 9 18.02 9 17 C8.34 17 7.68 17 7 17 C7 15.02 7 13.04 7 11 C6.06414063 10.90912109 6.06414063 10.90912109 5.109375 10.81640625 C3 10 3 10 1.953125 7.71484375 C1.72109375 6.79832031 1.4890625 5.88179688 1.25 4.9375 C1.00765625 4.01839844 0.7653125 3.09929687 0.515625 2.15234375 C0.34546875 1.44207031 0.1753125 0.73179688 0 0 Z " fill="#04280B" transform="translate(527,69)"/>
<path d="M0 0 C0.99 0.33 1.98 0.66 3 1 C1.625 3 1.625 3 0 5 C-0.66 5 -1.32 5 -2 5 C-2.33 5.99 -2.66 6.98 -3 8 C-6.00600038 11.34000042 -8.94046881 14.02509293 -13 16 C-13.66 15.67 -14.32 15.34 -15 15 C-10.05 10.05 -5.1 5.1 0 0 Z " fill="#07250F" transform="translate(263,72)"/>
<path d="M0 0 C0.66 0 1.32 0 2 0 C2.33 0.99 2.66 1.98 3 3 C2.01 3.495 2.01 3.495 1 4 C0.34786708 6.02463255 0.34786708 6.02463255 0 8 C1.32 7.34 2.64 6.68 4 6 C3.42655063 8.86724686 3.1385485 9.8614515 1 12 C1.99 13.32 2.98 14.64 4 16 C3.34 16.66 2.68 17.32 2 18 C-1.4135842 14.88324921 -1.96371045 12.76208055 -2.1875 8.0625 C-2.15827158 4.88829383 -1.80180892 2.70271338 0 0 Z " fill="#44CF79" transform="translate(292,16)"/>
<path d="M0 0 C0.66 0.33 1.32 0.66 2 1 C1.09098826 2.5877405 0.17242076 4.17001197 -0.75 5.75 C-1.26046875 6.63171875 -1.7709375 7.5134375 -2.296875 8.421875 C-3.99093903 10.98628385 -5.6834528 12.98479227 -8 15 C-8.66 15 -9.32 15 -10 15 C-10 13.35 -10 11.7 -10 10 C-9.38125 9.95875 -8.7625 9.9175 -8.125 9.875 C-7.42375 9.58625 -6.7225 9.2975 -6 9 C-4.6954344 6.00384054 -4.6954344 6.00384054 -4 3 C-3.01 3.33 -2.02 3.66 -1 4 C-0.67 2.68 -0.34 1.36 0 0 Z " fill="#43D27A" transform="translate(666,123)"/>
<path d="M0 0 C2.30367627 3.03376444 4.50861299 6.12555825 6.6875 9.25 C7.31011719 10.14203125 7.93273437 11.0340625 8.57421875 11.953125 C9.04472656 12.62859375 9.51523437 13.3040625 10 14 C9.01 14.33 8.02 14.66 7 15 C5.99406757 13.8803014 4.9954151 12.7540588 4 11.625 C3.1646875 10.68527344 3.1646875 10.68527344 2.3125 9.7265625 C1 8 1 8 1 6 C0.34 6 -0.32 6 -1 6 C-0.67 4.02 -0.34 2.04 0 0 Z " fill="#05230C" transform="translate(578,122)"/>
<path d="M0 0 C1.0013988 3.00419641 1.51421457 5.87709365 2 9 C1.01 8.67 0.02 8.34 -1 8 C-1.33 8.66 -1.66 9.32 -2 10 C-2.66 9.67 -3.32 9.34 -4 9 C-5.67419438 9.9873454 -7.34051852 10.98812105 -9 12 C-9.99 12 -10.98 12 -12 12 C-8.04 8.04 -4.08 4.08 0 0 Z " fill="#43D177" transform="translate(210,104)"/>
<path d="M0 0 C5.94 0.33 11.88 0.66 18 1 C18 1.33 18 1.66 18 2 C16.45892578 2.12955078 16.45892578 2.12955078 14.88671875 2.26171875 C6.07840101 3.11571667 -1.14007688 4.63707658 -9 9 C-9 8.01 -9 7.02 -9 6 C-7.88625 5.7525 -6.7725 5.505 -5.625 5.25 C-1.58116476 4.32862925 -1.58116476 4.32862925 0 0 Z " fill="#4ED782" transform="translate(494,60)"/>
<path d="M0 0 C1.1171875 3.71875 1.1171875 3.71875 0.0625 6.25 C-0.4634375 7.11625 -0.4634375 7.11625 -1 8 C-1.66 8 -2.32 8 -3 8 C-2.938125 8.721875 -2.87625 9.44375 -2.8125 10.1875 C-3.03746621 13.56199315 -3.99869763 15.30593911 -6 18 C-6.66 18 -7.32 18 -8 18 C-6.70949166 11.03125494 -3.85189664 5.91108667 0 0 Z " fill="#43C675" transform="translate(467,66)"/>
<path d="M0 0 C0.33 1.32 0.66 2.64 1 4 C0.01 4 -0.98 4 -2 4 C-2 5.98 -2 7.96 -2 10 C-3.65 10.33 -5.3 10.66 -7 11 C-7 10.34 -7 9.68 -7 9 C-6.34 9 -5.68 9 -5 9 C-5 8.34 -5 7.68 -5 7 C-5.99 6.67 -6.98 6.34 -8 6 C-5.63379989 3.38472619 -3.057952 1.73559438 0 0 Z " fill="#43D172" transform="translate(156,69)"/>
<path d="M0 0 C0.33 0.66 0.66 1.32 1 2 C1.66 2.33 2.32 2.66 3 3 C2.5 4.8125 2.5 4.8125 1 7 C-1.58598421 8.26011942 -4.27041877 9.10719947 -7 10 C-7.99 10.495 -7.99 10.495 -9 11 C-6.92623208 6.33402219 -4.25832657 2.83888438 0 0 Z " fill="#45CE74" transform="translate(370,55)"/>
<path d="M0 0 C0.33 0 0.66 0 1 0 C1.30136986 9.04109589 1.30136986 9.04109589 -1 12 C-5.48479122 15.92419232 -10.37941883 15.29467125 -16 15 C-16.33 14.34 -16.66 13.68 -17 13 C-15.77023437 12.97873047 -15.77023437 12.97873047 -14.515625 12.95703125 C-7.9383938 12.82865176 -7.9383938 12.82865176 -2.3125 9.875 C-0.79593632 6.55300337 -0.28466655 3.6294985 0 0 Z " fill="#4CBD76" transform="translate(312,21)"/>
<path d="M0 0 C-2.37984901 2.37984901 -4.0167531 2.95270406 -7.36010742 3.11352539 C-8.26607666 3.10828857 -9.1720459 3.10305176 -10.10546875 3.09765625 C-11.08837891 3.09443359 -12.07128906 3.09121094 -13.08398438 3.08789062 C-14.10814453 3.07951172 -15.13230469 3.07113281 -16.1875 3.0625 C-17.22326172 3.05798828 -18.25902344 3.05347656 -19.32617188 3.04882812 C-21.88417266 3.0370401 -24.44205733 3.02058515 -27 3 C-27 2.34 -27 1.68 -27 1 C-25.9378125 1.02320313 -24.875625 1.04640625 -23.78125 1.0703125 C-16.87530653 1.17397103 -5.88570148 -1.96190049 0 0 Z " fill="#53CB80" transform="translate(523,134)"/>
<path d="M0 0 C4 0 4 0 5.703125 1.53125 C6.21359375 2.1809375 6.7240625 2.830625 7.25 3.5 C7.77078125 4.1496875 8.2915625 4.799375 8.828125 5.46875 C9.21484375 5.9740625 9.6015625 6.479375 10 7 C9.01 7.66 8.02 8.32 7 9 C5.68 8.34 4.36 7.68 3 7 C3.33 6.67 3.66 6.34 4 6 C2.35 5.01 0.7 4.02 -1 3 C-0.67 2.01 -0.34 1.02 0 0 Z " fill="#37E67C" transform="translate(478,127)"/>
<path d="M0 0 C0.66 0.33 1.32 0.66 2 1 C0.5682479 6.01113235 -1.98445693 7.94469549 -6 11 C-6.99 10.34 -7.98 9.68 -9 9 C-6.03 6.03 -3.06 3.06 0 0 Z " fill="#42D178" transform="translate(197,117)"/>
<path d="M0 0 C0.66 0 1.32 0 2 0 C2.67154933 1.28913487 3.33708859 2.58140204 4 3.875 C4.37125 4.59429687 4.7425 5.31359375 5.125 6.0546875 C6 8 6 8 6 10 C9.3 10 12.6 10 16 10 C16 10.33 16 10.66 16 11 C12.04 11.66 8.08 12.32 4 13 C0 2.25 0 2.25 0 0 Z " fill="#52C77E" transform="translate(533,75)"/>
<path d="M0 0 C2.4375 0.8125 2.4375 0.8125 5 2 C5.33 2.99 5.66 3.98 6 5 C8.00016466 6.20882096 8.00016466 6.20882096 10 7 C10 7.66 10 8.32 10 9 C10.495 9.37125 10.99 9.7425 11.5 10.125 C13.93673911 13.17092388 13.18748717 16.18776094 13 20 C11.32878046 17.4931707 10.2611265 15.37611624 9.125 12.625 C6.91884988 7.57299824 3.98932566 3.78985938 0 0 Z " fill="#51CE80" transform="translate(644,68)"/>
<path d="M0 0 C0.90105469 0.01804688 1.80210937 0.03609375 2.73046875 0.0546875 C3.41753906 0.07789063 4.10460937 0.10109375 4.8125 0.125 C3.8225 0.62 3.8225 0.62 2.8125 1.125 C2.4825 2.115 2.1525 3.105 1.8125 4.125 C-1.4875 4.455 -4.7875 4.785 -8.1875 5.125 C-8.1875 4.135 -8.1875 3.145 -8.1875 2.125 C-4.87379 -0.08414 -3.8428979 -0.09981553 0 0 Z " fill="#34E66F" transform="translate(505.1875,50.875)"/>
<path d="M0 0 C0.8971875 0.309375 0.8971875 0.309375 1.8125 0.625 C-4.9375 4.625 -4.9375 4.625 -7.1875 4.625 C-6.259375 5.553125 -6.259375 5.553125 -5.3125 6.5 C-3.9375 7.875 -2.5625 9.25 -1.1875 10.625 C-4.5625 10.3125 -4.5625 10.3125 -8.1875 9.625 C-8.8475 8.635 -9.5075 7.645 -10.1875 6.625 C-3.20231959 -0.54896907 -3.20231959 -0.54896907 0 0 Z " fill="#04260A" transform="translate(35.1875,131.375)"/>
<path d="M0 0 C1 3 1 3 0 6 C-0.66 6 -1.32 6 -2 6 C-3.68873879 7.64429829 -5.35305515 9.31384218 -7 11 C-8.31175986 12.02813611 -9.6369893 13.04084432 -11 14 C-11.66 13.67 -12.32 13.34 -13 13 C-8.71 8.71 -4.42 4.42 0 0 Z " fill="#011A03" transform="translate(247,88)"/>
<path d="M0 0 C1.1446875 0.12375 1.1446875 0.12375 2.3125 0.25 C2.3125 0.91 2.3125 1.57 2.3125 2.25 C1.6525 2.25 0.9925 2.25 0.3125 2.25 C-0.0175 4.23 -0.3475 6.21 -0.6875 8.25 C-2.6675 8.58 -4.6475 8.91 -6.6875 9.25 C-6.04078163 4.59362773 -5.23074478 0.48658091 0 0 Z " fill="#38E473" transform="translate(476.6875,71.75)"/>
<path d="M0 0 C5.96652354 1.57013777 10.82909025 4.75029782 16 8 C12.44712603 9.18429132 10.58589143 8.99184231 7 8 C5.9375 6.0625 5.9375 6.0625 5 4 C2.46229997 2.71745356 2.46229997 2.71745356 0 2 C0 1.34 0 0.68 0 0 Z " fill="#05270C" transform="translate(34,142)"/>
<path d="M0 0 C-0.66 0 -1.32 0 -2 0 C-2 0.99 -2 1.98 -2 3 C-5.98188718 4.71767682 -9.96479403 6.41037341 -14 8 C-14 7.01 -14 6.02 -14 5 C-12.23628182 3.96692229 -10.46374967 2.94887951 -8.6875 1.9375 C-7.70136719 1.36902344 -6.71523438 0.80054687 -5.69921875 0.21484375 C-3 -1 -3 -1 0 0 Z " fill="#50D181" transform="translate(65,118)"/>
<path d="M0 0 C0.99 0.33 1.98 0.66 3 1 C3 1.99 3 2.98 3 4 C4.65 4 6.3 4 8 4 C7.02501855 5.5027237 6.04490611 7.00211963 5.0625 8.5 C4.51722656 9.3353125 3.97195313 10.170625 3.41015625 11.03125 C2.94480469 11.6809375 2.47945313 12.330625 2 13 C1.67 13 1.34 13 1 13 C1 10.03 1 7.06 1 4 C0.34 3.67 -0.32 3.34 -1 3 C-0.67 2.01 -0.34 1.02 0 0 Z " fill="#42C973" transform="translate(360,66)"/>
<path d="M0 0 C-1.90726751 1.20253816 -3.8262012 2.38658949 -5.75 3.5625 C-6.81734375 4.22378906 -7.8846875 4.88507813 -8.984375 5.56640625 C-12 7 -12 7 -14.390625 6.71484375 C-14.92171875 6.47894531 -15.4528125 6.24304688 -16 6 C-15.34 4.68 -14.68 3.36 -14 2 C-11.36 2 -8.72 2 -6 2 C-6 1.34 -6 0.68 -6 0 C-3.50907189 -1.24546405 -2.58919267 -0.7767578 0 0 Z " fill="#4BCD7B" transform="translate(136,144)"/>
<path d="M0 0 C0.98097656 0.32742187 1.96195313 0.65484375 2.97265625 0.9921875 C7.16980492 2.19137284 11.10064102 2.22816407 15.4375 2.125 C16.16904297 2.11597656 16.90058594 2.10695312 17.65429688 2.09765625 C19.43634298 2.07436153 21.21821759 2.0385019 23 2 C23 2.66 23 3.32 23 4 C15.41 4 7.82 4 0 4 C0 2.68 0 1.36 0 0 Z " fill="#46CC7C" transform="translate(609,133)"/>
<path d="M0 0 C2.64 0 5.28 0 8 0 C8.33 0.66 8.66 1.32 9 2 C11.11015954 3.12706706 11.11015954 3.12706706 13.5625 4.125 C14.38878906 4.47820312 15.21507812 4.83140625 16.06640625 5.1953125 C16.70449219 5.46085937 17.34257813 5.72640625 18 6 C16.02 6.99 16.02 6.99 14 8 C13.175 7.38125 12.35 6.7625 11.5 6.125 C7.8487774 3.66173499 4.28637498 2.8868362 0 2 C0 1.34 0 0.68 0 0 Z " fill="#48C775" transform="translate(512,61)"/>
<path d="M0 0 C-0.1875 1.875 -0.1875 1.875 -1 4 C-3.4375 5.125 -3.4375 5.125 -6 6 C-6.66 6.66 -7.32 7.32 -8 8 C-10.625 7.625 -10.625 7.625 -13 7 C-4.25 0 -4.25 0 0 0 Z " fill="#031E08" transform="translate(109,160)"/>
<path d="M0 0 C0.99 0.33 1.98 0.66 3 1 C-1.62 5.62 -6.24 10.24 -11 15 C-11.33 14.01 -11.66 13.02 -12 12 C-11.34 12 -10.68 12 -10 12 C-9.67 11.01 -9.34 10.02 -9 9 C-8.34 9 -7.68 9 -7 9 C-7 8.34 -7 7.68 -7 7 C-6.34 7 -5.68 7 -5 7 C-5 6.34 -5 5.68 -5 5 C-4.34 5 -3.68 5 -3 5 C-3 4.34 -3 3.68 -3 3 C-2.34 3 -1.68 3 -1 3 C-0.67 2.01 -0.34 1.02 0 0 Z " fill="#012209" transform="translate(204,107)"/>
<path d="M0 0 C4.21029808 6.31544712 4.26117359 12.03210098 4.125 19.375 C4.11597656 20.30183594 4.10695313 21.22867188 4.09765625 22.18359375 C4.07422937 24.45600077 4.04142748 26.7278618 4 29 C3.67 29 3.34 29 3 29 C2.98018066 28.44014404 2.96036133 27.88028809 2.93994141 27.3034668 C2.84462217 24.76434146 2.73497247 22.22603112 2.625 19.6875 C2.5940625 18.80642578 2.563125 17.92535156 2.53125 17.01757812 C2.49257813 16.17001953 2.45390625 15.32246094 2.4140625 14.44921875 C2.3826416 13.66893311 2.3512207 12.88864746 2.31884766 12.0847168 C2.10412111 9.69844232 2.10412111 9.69844232 0 7 C-0.07905064 4.66800612 -0.08798769 2.33167378 0 0 Z " fill="#032E0B" transform="translate(653,79)"/>
<path d="M0 0 C0.66 -0.33 1.32 -0.66 2 -1 C1.3046875 0.91796875 1.3046875 0.91796875 0 3 C-2.2421875 3.86328125 -2.2421875 3.86328125 -4.875 4.3125 C-5.73867187 4.47363281 -6.60234375 4.63476562 -7.4921875 4.80078125 C-9.96004384 4.99682591 -11.66156338 4.75591323 -14 4 C-12.23494565 3.13395466 -10.46271926 2.28251358 -8.6875 1.4375 C-7.70136719 0.96183594 -6.71523437 0.48617187 -5.69921875 -0.00390625 C-3 -1 -3 -1 0 0 Z " fill="#49D57E" transform="translate(139,83)"/>
<path d="M0 0 C-0.8125 1.9375 -0.8125 1.9375 -2 4 C-2.99 4.33 -3.98 4.66 -5 5 C-6.33393415 6.60049987 -6.33393415 6.60049987 -7.5 8.5 C-9.66666667 11.88888889 -9.66666667 11.88888889 -13 13 C-11.56179563 7.72658399 -7.9961885 4.50608991 -4 1 C-2 0 -2 0 0 0 Z " fill="#022107" transform="translate(375,66)"/>
<path d="M0 0 C5.15138296 2.73338688 9.97390359 5.71691871 14 10 C14 10.66 14 11.32 14 12 C13.01 12.33 12.02 12.66 11 13 C10.566875 12.236875 10.13375 11.47375 9.6875 10.6875 C7.52801244 7.24831611 5.82733348 5.48100784 2.3125 3.4375 C1.549375 2.963125 0.78625 2.48875 0 2 C0 1.34 0 0.68 0 0 Z " fill="#43BB70" transform="translate(530,54)"/>
<path d="M0 0 C3.57104439 1.87949705 5.54744301 3.17053157 7 7 C5.35 7.66 3.7 8.32 2 9 C0.4375 6.1875 0.4375 6.1875 -1 3 C-0.67 2.01 -0.34 1.02 0 0 Z " fill="#45D078" transform="translate(416,57)"/>
<path d="M0 0 C7.51806849 -0.44032071 13.84224277 0.71387222 21 3 C20.67 3.66 20.34 4.32 20 5 C13.33333333 3.66666667 6.66666667 2.33333333 0 1 C0 0.67 0 0.34 0 0 Z " fill="#47D279" transform="translate(624,49)"/>
<path d="M0 0 C0.99847342 3.10636175 1.0004307 4.90775964 0 8 C-0.28875 9.051875 -0.5775 10.10375 -0.875 11.1875 C-1.24625 12.115625 -1.6175 13.04375 -2 14 C-2.99 14.33 -3.98 14.66 -5 15 C-4.42479715 10.39837718 -3.41785936 3.41785936 0 0 Z " fill="#45C573" transform="translate(581,71)"/>
<path d="M0 0 C1.485 0.99 1.485 0.99 3 2 C8.22788162 2.60253551 13.27905982 2.51783476 18 0 C18.33 0.66 18.66 1.32 19 2 C16.51565563 4.34290892 15.22268407 4.97982934 11.765625 5.29296875 C10.60546875 5.25816406 9.4453125 5.22335938 8.25 5.1875 C7.07953125 5.16042969 5.9090625 5.13335937 4.703125 5.10546875 C3.81109375 5.07066406 2.9190625 5.03585938 2 5 C1.34 3.35 0.68 1.7 0 0 Z " fill="#04270C" transform="translate(293,33)"/>
<path d="M0 0 C1 4 1 4 0.0625 6.25 C-0.4634375 7.11625 -0.4634375 7.11625 -1 8 C0.32 8.66 1.64 9.32 3 10 C1.02 10.99 1.02 10.99 -1 12 C-1.33 11.34 -1.66 10.68 -2 10 C-2.66 10 -3.32 10 -4 10 C-4 10.66 -4 11.32 -4 12 C-4.66 11.67 -5.32 11.34 -6 11 C-4.02 7.37 -2.04 3.74 0 0 Z " fill="#071F0A" transform="translate(669,120)"/>
<path d="M0 0 C0.33 0 0.66 0 1 0 C1 2.31 1 4.62 1 7 C0.01 7 -0.98 7 -2 7 C-3.66756036 8.30436727 -3.66756036 8.30436727 -5.1875 10 C-5.71730469 10.556875 -6.24710938 11.11375 -6.79296875 11.6875 C-7.19128906 12.120625 -7.58960938 12.55375 -8 13 C-8.66 12.67 -9.32 12.34 -10 12 C-8.625 10 -8.625 10 -7 8 C-6.34 8 -5.68 8 -5 8 C-4.731875 7.4225 -4.46375 6.845 -4.1875 6.25 C-2.97790559 3.95813691 -1.64363461 2.00094648 0 0 Z " fill="#43C474" transform="translate(652,120)"/>
<path d="M0 0 C0.99 0.33 1.98 0.66 3 1 C2.66226563 1.50789063 2.32453125 2.01578125 1.9765625 2.5390625 C-0.65410814 6.59911488 -2.70414665 10.287806 -4 15 C-5.34307516 10.97077453 -5.67229935 7.59671095 -4 3.625 C-3.67 3.08875 -3.34 2.5525 -3 2 C-2.34 2 -1.68 2 -1 2 C-0.67 1.34 -0.34 0.68 0 0 Z " fill="#061F0B" transform="translate(581,67)"/>
<path d="M0 0 C3.88694884 1.46175854 5.00815228 3.30126163 6.75 7 C7.17796875 7.886875 7.6059375 8.77375 8.046875 9.6875 C9 12 9 12 9 14 C8.34 14 7.68 14 7 14 C6.32845067 12.71086513 5.66291141 11.41859796 5 10.125 C4.62875 9.40570313 4.2575 8.68640625 3.875 7.9453125 C3 6 3 6 3 4 C1.68 3.67 0.36 3.34 -1 3 C-0.67 2.01 -0.34 1.02 0 0 Z " fill="#4CC577" transform="translate(661,66)"/>
<path d="M0 0 C2.64 0 5.28 0 8 0 C7.60196439 2.88575819 7.20990931 3.82189513 4.9375 5.75 C4.298125 6.1625 3.65875 6.575 3 7 C0 2.25 0 2.25 0 0 Z " fill="#011B06" transform="translate(240,65)"/>
<path d="M0 0 C0.94359375 0.12568359 0.94359375 0.12568359 1.90625 0.25390625 C7.5314382 0.9231681 12.41233867 0.93127689 18 0 C18 0.99 18 1.98 18 3 C15.37493198 3.02690844 12.75013827 3.04679404 10.125 3.0625 C9.37863281 3.07087891 8.63226563 3.07925781 7.86328125 3.08789062 C2.2265625 3.11328125 2.2265625 3.11328125 0 2 C0 1.34 0 0.68 0 0 Z " fill="#33E675" transform="translate(494,58)"/>
<path d="M0 0 C1.01299606 2.65602626 1.07672553 3.78395707 0.109375 6.5078125 C-0.33921875 7.37148437 -0.7878125 8.23515625 -1.25 9.125 C-1.68828125 9.99382812 -2.1265625 10.86265625 -2.578125 11.7578125 C-4 14 -4 14 -7 16 C-6.42655063 13.13275314 -6.1385485 12.1385485 -4 10 C-3.59952556 7.67724823 -3.2602896 5.34260643 -3 3 C-2.34 3 -1.68 3 -1 3 C-0.67 2.01 -0.34 1.02 0 0 Z " fill="#001B04" transform="translate(655,109)"/>
<path d="M0 0 C0.99 0.33 1.98 0.66 3 1 C-0.3 4.3 -3.6 7.6 -7 11 C-7.66 10.34 -8.32 9.68 -9 9 C-5.38671875 4.3125 -5.38671875 4.3125 -4 3 C-3.01 3 -2.02 3 -1 3 C-0.67 2.01 -0.34 1.02 0 0 Z " fill="#062A10" transform="translate(240,72)"/>
<path d="M0 0 C0 0.66 0 1.32 0 2 C-0.928125 2.3403125 -0.928125 2.3403125 -1.875 2.6875 C-4.61410209 4.37929835 -5.05024472 5.99244161 -6 9 C-6.66 9 -7.32 9 -8 9 C-8 8.34 -8 7.68 -8 7 C-8.66 7 -9.32 7 -10 7 C-8.89184175 3.78634109 -8.01470446 3.0085776 -5 1.25 C-2 0 -2 0 0 0 Z " fill="#49CF79" transform="translate(604,52)"/>
<path d="M0 0 C5.28 0 10.56 0 16 0 C14.35 1.32 12.7 2.64 11 4 C10.67 3.34 10.34 2.68 10 2 C8.081875 2.061875 8.081875 2.061875 6.125 2.125 C3.9453125 2.1953125 3.9453125 2.1953125 2 2 C1.34 1.34 0.68 0.68 0 0 Z " fill="#001300" transform="translate(342,147)"/>
<path d="M0 0 C0.33 0 0.66 0 1 0 C1.05441656 1.89551022 1.09298035 3.7914792 1.125 5.6875 C1.14820313 6.74324219 1.17140625 7.79898438 1.1953125 8.88671875 C0.99858729 12.02251859 0.33057654 14.17645373 -1 17 C-1.33 17 -1.66 17 -2 17 C-1.85978195 14.35375716 -1.71310224 11.70815422 -1.5625 9.0625 C-1.52318359 8.30775391 -1.48386719 7.55300781 -1.44335938 6.77539062 C-1.11328125 1.11328125 -1.11328125 1.11328125 0 0 Z " fill="#49D27E" transform="translate(670,105)"/>
<path d="M0 0 C1.92154764 0.9063904 3.83706654 1.82556804 5.75 2.75 C7.35101563 3.51570313 7.35101563 3.51570313 8.984375 4.296875 C11.86694755 5.92485639 13.80426309 7.54844908 16 10 C10.73582038 9.59506311 8.47730515 8.94094584 5 5 C4.0925 4.46375 3.185 3.9275 2.25 3.375 C1.5075 2.92125 0.765 2.4675 0 2 C0 1.34 0 0.68 0 0 Z " fill="#4FCA7D" transform="translate(99,31)"/>
<path d="M0 0 C0 2 0 2 -1.3203125 3.32421875 C-6.24104757 7.04139741 -6.24104757 7.04139741 -10.4375 6.8125 C-11.7059375 6.4103125 -11.7059375 6.4103125 -13 6 C-9.40464172 2.97989905 -4.81374718 0 0 0 Z " fill="#04260B" transform="translate(653,142)"/>
<path d="M0 0 C0.66 0 1.32 0 2 0 C2 3.63 2 7.26 2 11 C1.01 11.495 1.01 11.495 0 12 C-1.12256131 9.75487738 -1.13413762 8.48543351 -1.125 6 C-1.12886719 4.948125 -1.12886719 4.948125 -1.1328125 3.875 C-1 2 -1 2 0 0 Z " fill="#46CF7C" transform="translate(459,84)"/>
<path d="M0 0 C2.31 0.66 4.62 1.32 7 2 C7.33 3.32 7.66 4.64 8 6 C7.01 6.495 7.01 6.495 6 7 C3.5249829 5.88568235 1.32116581 4.41849022 -1 3 C-0.67 2.01 -0.34 1.02 0 0 Z " fill="#3BC96E" transform="translate(72,82)"/>
<path d="M0 0 C-0.1875 1.8125 -0.1875 1.8125 -1 4 C-3.26546849 5.56840126 -5.5414529 6.77072645 -8 8 C-8.66 7.67 -9.32 7.34 -10 7 C-10 6.34 -10 5.68 -10 5 C-8.3203125 3.7109375 -8.3203125 3.7109375 -6.125 2.375 C-5.40570313 1.92898437 -4.68640625 1.48296875 -3.9453125 1.0234375 C-2 0 -2 0 0 0 Z " fill="#051E0A" transform="translate(125,72)"/>
<path d="M0 0 C0 0.99 0 1.98 0 3 C2.97 3.495 2.97 3.495 6 4 C5.01 4.495 5.01 4.495 4 5 C4.33 5.99 4.66 6.98 5 8 C1.4124787 6.66749209 -1.8364623 5.169283 -5 3 C-5 2.34 -5 1.68 -5 1 C-3 0 -3 0 0 0 Z " fill="#4FC680" transform="translate(33,57)"/>
<path d="M0 0 C1.07894531 0.12761719 2.15789063 0.25523438 3.26953125 0.38671875 C4.35621094 0.50660156 5.44289063 0.62648437 6.5625 0.75 C7.39394531 0.85699219 8.22539063 0.96398438 9.08203125 1.07421875 C9.08203125 1.73421875 9.08203125 2.39421875 9.08203125 3.07421875 C4.13203125 3.07421875 -0.81796875 3.07421875 -5.91796875 3.07421875 C-2.91796875 0.07421875 -2.91796875 0.07421875 0 0 Z " fill="#3BE46C" transform="translate(622.91796875,56.92578125)"/>
<path d="M0 0 C1.79240663 0.11389875 3.58394835 0.24147687 5.375 0.375 C6.87160156 0.47941406 6.87160156 0.47941406 8.3984375 0.5859375 C11 1 11 1 13 3 C12 4 12 4 9.93359375 4.09765625 C9.10988281 4.08605469 8.28617187 4.07445312 7.4375 4.0625 C6.61121094 4.05347656 5.78492188 4.04445313 4.93359375 4.03515625 C4.29550781 4.02355469 3.65742188 4.01195312 3 4 C3 3.34 3 2.68 3 2 C2.01 1.34 1.02 0.68 0 0 Z " fill="#39D96C" transform="translate(381,50)"/>
<path d="M0 0 C3.96 1.98 7.92 3.96 12 6 C11.01 6.99 10.02 7.98 9 9 C8.608125 8.54625 8.21625 8.0925 7.8125 7.625 C6.03617861 5.82633906 6.03617861 5.82633906 3.375 5.0625 C2.59125 4.711875 1.8075 4.36125 1 4 C0.67 2.68 0.34 1.36 0 0 Z " fill="#021A07" transform="translate(50,151)"/>
<path d="M0 0 C-0.33 0.99 -0.66 1.98 -1 3 C-7.37358711 3.96205088 -13.55929529 4.10655578 -20 4 C-20 3.67 -20 3.34 -20 3 C-19.3709375 2.95101562 -18.741875 2.90203125 -18.09375 2.8515625 C-12.12999506 2.3306321 -5.84804803 0 0 0 Z " fill="#3EB770" transform="translate(638,146)"/>
<path d="M0 0 C0.33 0 0.66 0 1 0 C1 2.64 1 5.28 1 8 C-1.64 8.66 -4.28 9.32 -7 10 C-6.67 9.34 -6.34 8.68 -6 8 C-5.34 8 -4.68 8 -4 8 C-3.71125 7.236875 -3.4225 6.47375 -3.125 5.6875 C-2 3 -2 3 0 0 Z " fill="#062E10" transform="translate(547,127)"/>
<path d="M0 0 C3.73487777 0.4979837 5.81237635 0.87491756 9 3 C9 3.66 9 4.32 9 5 C10.65 5 12.3 5 14 5 C14 5.99 14 6.98 14 8 C8.76481294 6.56032356 4.36973991 4.18303389 0 1 C0 0.67 0 0.34 0 0 Z " fill="#04280C" transform="translate(103,111)"/>
<path d="M0 0 C1.32 0.33 2.64 0.66 4 1 C2.02 3.31 0.04 5.62 -2 8 C-2.66 7.34 -3.32 6.68 -4 6 C-3.8125 4 -3.8125 4 -3 2 C-2.01 1.34 -1.02 0.68 0 0 Z " fill="#45D178" transform="translate(238,92)"/>
<path d="M0 0 C-1.20842856 4.43090471 -2.51668565 6.98112756 -6 10 C-6.33663062 6.29706315 -6.47736015 4.60465619 -4.125 1.625 C-2 0 -2 0 0 0 Z " fill="#32E773" transform="translate(596,71)"/>
<path d="M0 0 C-0.33 0.99 -0.66 1.98 -1 3 C-1.66 3 -2.32 3 -3 3 C-4.70680947 4.62553283 -6.37660195 6.29115995 -8 8 C-9.32 7.34 -10.64 6.68 -12 6 C-10.37829621 4.99466333 -8.75252763 3.99588093 -7.125 3 C-5.76761719 2.1646875 -5.76761719 2.1646875 -4.3828125 1.3125 C-2 0 -2 0 0 0 Z " fill="#012107" transform="translate(141,63)"/>
<path d="M0 0 C0.66 0.33 1.32 0.66 2 1 C0.42210402 2.15330947 -1.1625482 3.29737927 -2.75 4.4375 C-3.63171875 5.07558594 -4.5134375 5.71367188 -5.421875 6.37109375 C-7.72699125 7.8275081 -9.34349572 8.55931821 -12 9 C-12 8.01 -12 7.02 -12 6 C-10.02 5.67 -8.04 5.34 -6 5 C-6 4.34 -6 3.68 -6 3 C-4.03533587 1.93224776 -2.03144641 0.93446535 0 0 Z " fill="#54C982" transform="translate(144,58)"/>
<path d="M0 0 C-0.50603992 2.16874252 -0.99983813 3.99967627 -2 6 C-4.64 6 -7.28 6 -10 6 C-4.4 0 -4.4 0 0 0 Z " fill="#05250B" transform="translate(119,154)"/>
<path d="M0 0 C0.33 0.99 0.66 1.98 1 3 C0.01 3.66 -0.98 4.32 -2 5 C-2 6.32 -2 7.64 -2 9 C-2.99 9.33 -3.98 9.66 -5 10 C-5.3125 7.8125 -5.3125 7.8125 -5 5 C-2.5 2.1875 -2.5 2.1875 0 0 Z M1 3 C1.66 3.33 2.32 3.66 3 4 C2.01 4.66 1.02 5.32 0 6 C0.33 5.01 0.66 4.02 1 3 Z " fill="#030F01" transform="translate(233,102)"/>
<path d="M0 0 C0.33 0.66 0.66 1.32 1 2 C2.32 2 3.64 2 5 2 C4.75 4.375 4.75 4.375 4 7 C2.02 7.99 2.02 7.99 0 9 C0 6.03 0 3.06 0 0 Z " fill="#3FD77C" transform="translate(95,80)"/>
<path d="M0 0 C0.66 2.31 1.32 4.62 2 7 C0.35 7 -1.3 7 -3 7 C-3.66 5.68 -4.32 4.36 -5 3 C-2.25 0 -2.25 0 0 0 Z " fill="#40E27E" transform="translate(366,63)"/>
<path d="M0 0 C1.32 0.33 2.64 0.66 4 1 C4 6.28 4 11.56 4 17 C3.01 17.33 2.02 17.66 1 18 C1.16113281 17.443125 1.32226562 16.88625 1.48828125 16.3125 C2.04073826 13.81590039 2.16802214 11.55549558 2.1875 9 C2.20876953 7.7315625 2.20876953 7.7315625 2.23046875 6.4375 C1.98543096 3.84591384 1.30584901 2.22975008 0 0 Z " fill="#083916" transform="translate(310,15)"/>
<path d="M0 0 C2.64 0 5.28 0 8 0 C7.01 0.495 7.01 0.495 6 1 C5.67 1.99 5.34 2.98 5 4 C3.35 4.33 1.7 4.66 0 5 C-0.33 4.01 -0.66 3.02 -1 2 C-0.67 1.34 -0.34 0.68 0 0 Z " fill="#36E679" transform="translate(485,53)"/>
<path d="M0 0 C1.65 0.33 3.3 0.66 5 1 C-0.14285714 6.57142857 -0.14285714 6.57142857 -4 7 C-4.66 5.68 -5.32 4.36 -6 3 C-3.03 3.495 -3.03 3.495 0 4 C0 2.68 0 1.36 0 0 Z " fill="#48CF7A" transform="translate(535,136)"/>
<path d="M0 0 C-1.43570266 0.81567174 -2.87363434 1.62742093 -4.3125 2.4375 C-5.51326172 3.11619141 -5.51326172 3.11619141 -6.73828125 3.80859375 C-9 5 -9 5 -12 6 C-12 4 -12 4 -10.25 1.9375 C-6.61585808 -1.19189998 -4.47654877 -1.22172477 0 0 Z " fill="#032508" transform="translate(51,124)"/>
<path d="M0 0 C0.99 0.33 1.98 0.66 3 1 C3 1.66 3 2.32 3 3 C4.65 3.33 6.3 3.66 8 4 C7.67 5.32 7.34 6.64 7 8 C3.7 6.02 0.4 4.04 -3 2 C-2.01 1.34 -1.02 0.68 0 0 Z " fill="#052009" transform="translate(125,121)"/>
<path d="M0 0 C3.465 1.485 3.465 1.485 7 3 C5.35 4.32 3.7 5.64 2 7 C1.67 6.34 1.34 5.68 1 5 C0.34 5 -0.32 5 -1 5 C-1.33 4.01 -1.66 3.02 -2 2 C-1.34 1.34 -0.68 0.68 0 0 Z " fill="#07150F" transform="translate(49,39)"/>
<path d="M0 0 C-1.76245222 1.1999038 -3.53526981 2.38459517 -5.3125 3.5625 C-6.79169922 4.55443359 -6.79169922 4.55443359 -8.30078125 5.56640625 C-9.19152344 6.03949219 -10.08226563 6.51257813 -11 7 C-11.99 6.67 -12.98 6.34 -14 6 C-5.00826446 -1.66942149 -5.00826446 -1.66942149 0 0 Z " fill="#50CC7F" transform="translate(120,153)"/>
<path d="M0 0 C2.97 0 5.94 0 9 0 C9.33 1.65 9.66 3.3 10 5 C5.59885603 4.49701212 3.28804981 2.91227269 0 0 Z " fill="#46CE7C" transform="translate(132,112)"/>
<path d="M0 0 C-8.20689655 7 -8.20689655 7 -13 7 C-13 6.34 -13 5.68 -13 5 C-11.35 4.67 -9.7 4.34 -8 4 C-7.67 3.01 -7.34 2.02 -7 1 C-4.53721199 -0.231394 -2.7204945 -0.07159196 0 0 Z " fill="#052B0E" transform="translate(81,106)"/>
<path d="M0 0 C0.99 0.33 1.98 0.66 3 1 C0.36 3.64 -2.28 6.28 -5 9 C-5.33 7.68 -5.66 6.36 -6 5 C-2.25 2 -2.25 2 0 2 C0 1.34 0 0.68 0 0 Z " fill="#083114" transform="translate(225,87)"/>
<path d="M0 0 C2.97 0.495 2.97 0.495 6 1 C6.33 2.32 6.66 3.64 7 5 C5.68 5.33 4.36 5.66 3 6 C2.01 4.02 1.02 2.04 0 0 Z " fill="#31E86F" transform="translate(355,69)"/>
<path d="M0 0 C0.99 0.33 1.98 0.66 3 1 C3 1.66 3 2.32 3 3 C3.61875 3.226875 4.2375 3.45375 4.875 3.6875 C7.61410209 5.37929835 8.05024472 6.99244161 9 10 C8.01 10.495 8.01 10.495 7 11 C6.608125 10.278125 6.21625 9.55625 5.8125 8.8125 C3.85350102 5.772674 1.62036403 3.47872273 -1 1 C-0.67 0.67 -0.34 0.34 0 0 Z " fill="#051D0A" transform="translate(537,56)"/>
<path d="M0 0 C0.33 0.99 0.66 1.98 1 3 C-2.96 4.98 -6.92 6.96 -11 9 C-9.72648692 5.17946076 -8.37362475 4.76978625 -4.9375 2.8125 C-4.01839844 2.28269531 -3.09929688 1.75289062 -2.15234375 1.20703125 C-1.44207031 0.80871094 -0.73179688 0.41039062 0 0 Z " fill="#4DC67D" transform="translate(45,48)"/>
<path d="M0 0 C-7.71428571 6 -7.71428571 6 -11 6 C-11 5.01 -11 4.02 -11 3 C-9.35 2.67 -7.7 2.34 -6 2 C-6 1.34 -6 0.68 -6 0 C-3.50907189 -1.24546405 -2.58919267 -0.7767578 0 0 Z " fill="#032508" transform="translate(79,29)"/>
<path d="M0 0 C2 1.5 2 1.5 3 3 C1.989375 2.79375 0.97875 2.5875 -0.0625 2.375 C-4.49506869 1.9528506 -6.86108962 2.5640515 -11 4 C-11 3.01 -11 2.02 -11 1 C-7.26274081 -0.24575306 -3.91147543 -0.48893443 0 0 Z " fill="#55D084" transform="translate(306,13)"/>
<path d="M0 0 C0.33 0.66 0.66 1.32 1 2 C1.9590625 2.4640625 1.9590625 2.4640625 2.9375 2.9375 C5 4 5 4 7 7 C6.67 7.99 6.34 8.98 6 10 C3.69 7.69 1.38 5.38 -1 3 C-0.67 2.01 -0.34 1.02 0 0 Z " fill="#041F06" transform="translate(480,120)"/>
<path d="M0 0 C0.99 0.66 1.98 1.32 3 2 C1.71186658 2.83878455 0.41936744 3.67086783 -0.875 4.5 C-1.59429687 4.9640625 -2.31359375 5.428125 -3.0546875 5.90625 C-5 7 -5 7 -7 7 C-5.66667905 3.00003714 -3.5042173 2.16217663 0 0 Z " fill="#032109" transform="translate(123,85)"/>
<path d="M0 0 C6.75 1.75 6.75 1.75 9 4 C9.66 4 10.32 4 11 4 C11 4.66 11 5.32 11 6 C11.66 6.33 12.32 6.66 13 7 C7.53228436 6.59992325 4.04064621 4.53855408 0 1 C0 0.67 0 0.34 0 0 Z " fill="#4ECB7E" transform="translate(41,66)"/>
<path d="M0 0 C0.33 0 0.66 0 1 0 C1.03738281 0.77085938 1.07476562 1.54171875 1.11328125 2.3359375 C1.17902344 3.33882812 1.24476563 4.34171875 1.3125 5.375 C1.37050781 6.37273438 1.42851562 7.37046875 1.48828125 8.3984375 C1.65714844 9.25695312 1.82601563 10.11546875 2 11 C2.99 11.66 3.98 12.32 5 13 C2.69 13.33 0.38 13.66 -2 14 C-1.34 9.38 -0.68 4.76 0 0 Z " fill="#45DE81" transform="translate(355,56)"/>
<path d="M0 0 C-1.81817001 2.31459868 -2.75615543 2.95377187 -5.69921875 3.51171875 C-6.68535156 3.56972656 -7.67148437 3.62773438 -8.6875 3.6875 C-9.68136719 3.75324219 -10.67523438 3.81898437 -11.69921875 3.88671875 C-12.45847656 3.92410156 -13.21773438 3.96148437 -14 4 C-13 2 -13 2 -10.375 0.875 C-6.78189212 -0.05654649 -3.69584376 -0.14783375 0 0 Z " fill="#47CA7B" transform="translate(385,51)"/>
<path d="M0 0 C-1.36983503 3.16115776 -1.9890638 3.9927092 -5 6 C-7.6875 6.125 -7.6875 6.125 -10 6 C-2.6 0 -2.6 0 0 0 Z " fill="#04260B" transform="translate(136,144)"/>
<path d="M0 0 C4.75 0.75 4.75 0.75 7 3 C5.02 3.99 3.04 4.98 1 6 C0 1.125 0 1.125 0 0 Z " fill="#48D17A" transform="translate(136,137)"/>
<path d="M0 0 C2 3 2 3 2 6 C1.01 6.33 0.02 6.66 -1 7 C-1 6.34 -1 5.68 -1 5 C-2.65 5.33 -4.3 5.66 -6 6 C-4 4 -2 2 0 0 Z " fill="#41D173" transform="translate(529,127)"/>
<path d="M0 0 C0 2 0 2 -2 4.125 C-2.66 4.74375 -3.32 5.3625 -4 6 C-5.32 5.34 -6.64 4.68 -8 4 C-4.5 0 -4.5 0 0 0 Z " fill="#0D0104" transform="translate(139,118)"/>
<path d="M0 0 C1.32 0.33 2.64 0.66 4 1 C3.67 3.31 3.34 5.62 3 8 C2.01 8 1.02 8 0 8 C0 5.36 0 2.72 0 0 Z " fill="#35E577" transform="translate(666,104)"/>
<path d="M0 0 C0.99 0.33 1.98 0.66 3 1 C-0.12621626 4.39417765 -2.56541027 6.6062718 -7 8 C-6.02133662 6.85373678 -5.04205413 5.70800212 -4.0625 4.5625 C-3.51722656 3.92441406 -2.97195312 3.28632812 -2.41015625 2.62890625 C-1.63204305 1.73008851 -0.84063472 0.84063472 0 0 Z " fill="#012006" transform="translate(255,80)"/>
<path d="M0 0 C3.33193619 2.69728168 4.60371996 6.02060187 6 10 C5.578125 12.22265625 5.578125 12.22265625 5 14 C4.16235732 12.04350603 3.33000941 10.08474444 2.5 8.125 C2.0359375 7.03445312 1.571875 5.94390625 1.09375 4.8203125 C0 2 0 2 0 0 Z " fill="#50CC81" transform="translate(423,64)"/>
<path d="M0 0 C4.99911924 0.47610659 7.97832683 2.03162219 12 5 C11.67 5.99 11.34 6.98 11 8 C9.53977837 7.04454634 8.08188532 6.08553322 6.625 5.125 C5.81289063 4.59132813 5.00078125 4.05765625 4.1640625 3.5078125 C2 2 2 2 0 0 Z " fill="#03240A" transform="translate(409,52)"/>
<path d="M0 0 C0 1.65 0 3.3 0 5 C-0.33 4.34 -0.66 3.68 -1 3 C-2.66072849 2.31867549 -4.327767 1.65257873 -6 1 C-6.66 0.34 -7.32 -0.32 -8 -1 C-4.59745511 -2.2151946 -3.06748874 -1.86240388 0 0 Z " fill="#08290E" transform="translate(147,133)"/>
<path d="M0 0 C0.33 0.99 0.66 1.98 1 3 C-0.9375 6.1875 -0.9375 6.1875 -3 9 C-5 6 -5 6 -5 4 C-3.37373596 2.61767557 -1.7074998 1.28062485 0 0 Z " fill="#34E470" transform="translate(204,114)"/>
<path d="M0 0 C1.65 0 3.3 0 5 0 C5 2.64 5 5.28 5 8 C1.75267068 6.37633534 1.29844864 3.24612161 0 0 Z " fill="#45CB78" transform="translate(410,71)"/>
<path d="M0 0 C0.99 0.33 1.98 0.66 3 1 C-0.28804981 3.91227269 -2.59885603 5.49701212 -7 6 C-2.25 1.125 -2.25 1.125 0 0 Z " fill="#06280E" transform="translate(491,65)"/>
<path d="M0 0 C0.66 0.33 1.32 0.66 2 1 C2 2.98 2 4.96 2 7 C-0.475 6.01 -0.475 6.01 -3 5 C-2.625 3.0625 -2.625 3.0625 -2 1 C-1.34 0.67 -0.68 0.34 0 0 Z " fill="#3CDA6F" transform="translate(414,55)"/>
<path d="M0 0 C3.26008643 3.16952847 6.22237877 6.39937989 9 10 C5.83475549 9.66086666 5.02399882 9.02752805 2.875 6.5625 C2.25625 5.716875 1.6375 4.87125 1 4 C0.34 3.34 -0.32 2.68 -1 2 C-0.67 1.34 -0.34 0.68 0 0 Z " fill="#4FC378" transform="translate(478,121)"/>
<path d="M0 0 C0.33 0 0.66 0 1 0 C1.28875 1.051875 1.5775 2.10375 1.875 3.1875 C2.87865345 6.87060901 2.87865345 6.87060901 4.1875 9.75 C5 12 5 12 4 15 C-0.59225513 5.77448747 -0.59225513 5.77448747 0 0 Z " fill="#021E06" transform="translate(474,106)"/>
<path d="M0 0 C0.33 0 0.66 0 1 0 C1.22245393 1.60226955 1.42746669 3.20696767 1.625 4.8125 C1.74101563 5.70582031 1.85703125 6.59914063 1.9765625 7.51953125 C2 10 2 10 0 13 C-1.29676812 8.38926889 -0.71109139 4.66159911 0 0 Z " fill="#4FD980" transform="translate(658,96)"/>
<path d="M0 0 C0.7425 0.185625 1.485 0.37125 2.25 0.5625 C4.94990963 0.99203108 6.44631077 0.85122974 9 0 C9 0.99 9 1.98 9 3 C6.36 3.33 3.72 3.66 1 4 C0.67 2.68 0.34 1.36 0 0 Z " fill="#33E77C" transform="translate(237,86)"/>
<path d="M0 0 C1.98 0.99 3.96 1.98 6 3 C4.68 4.32 3.36 5.64 2 7 C1.01 6.34 0.02 5.68 -1 5 C-0.67 3.35 -0.34 1.7 0 0 Z " fill="#061309" transform="translate(65,81)"/>
<path d="M0 0 C1 3 1 3 0.29296875 4.7890625 C-0.07183594 5.39492187 -0.43664062 6.00078125 -0.8125 6.625 C-1.16957031 7.23601562 -1.52664063 7.84703125 -1.89453125 8.4765625 C-3 10 -3 10 -5 11 C-3.92289822 6.69159287 -2.96052484 3.36423277 0 0 Z " fill="#082F12" transform="translate(597,74)"/>
<path d="M0 0 C0.66 0.33 1.32 0.66 2 1 C2 1.66 2 2.32 2 3 C2.66 3.33 3.32 3.66 4 4 C1.525 5.485 1.525 5.485 -1 7 C-1.625 5.1875 -1.625 5.1875 -2 3 C-1.34 2.01 -0.68 1.02 0 0 Z " fill="#061309" transform="translate(26,57)"/>
<path d="M0 0 C1.65 0.33 3.3 0.66 5 1 C5.33 2.32 5.66 3.64 6 5 C2.37 4.34 -1.26 3.68 -5 3 C-5 2.67 -5 2.34 -5 2 C-3.35 2 -1.7 2 0 2 C0 1.34 0 0.68 0 0 Z " fill="#05310F" transform="translate(304,10)"/>
<path d="M0 0 C1.46366342 0.39753821 2.9208935 0.81881384 4.375 1.25 C5.18710937 1.48203125 5.99921875 1.7140625 6.8359375 1.953125 C9.45785454 3.2214892 9.99382318 4.32423308 11 7 C9.35063087 6.21572648 7.70558873 5.42234741 6.0625 4.625 C5.14597656 4.18414062 4.22945312 3.74328125 3.28515625 3.2890625 C1 2 1 2 0 0 Z " fill="#55D386" transform="translate(37,142)"/>
<path d="M0 0 C0 0.99 0 1.98 0 3 C0.99 3.33 1.98 3.66 3 4 C-0.375 4.125 -0.375 4.125 -4 4 C-4.66 3.34 -5.32 2.68 -6 2 C-3 0 -3 0 0 0 Z " fill="#32E672" transform="translate(496,142)"/>
<path d="M0 0 C2.31 0.66 4.62 1.32 7 2 C6.67 3.32 6.34 4.64 6 6 C6.66 6 7.32 6 8 6 C7.67 6.66 7.34 7.32 7 8 C4.35247996 5.42215154 2.05567935 3.08351902 0 0 Z " fill="#042C0B" transform="translate(596,122)"/>
<path d="M0 0 C0.66 0 1.32 0 2 0 C2.69965443 1.26418246 3.38434763 2.53665402 4.0625 3.8125 C4.63677734 4.87404297 4.63677734 4.87404297 5.22265625 5.95703125 C6 8 6 8 5 11 C4.16151196 9.54462432 3.32936066 8.08559627 2.5 6.625 C1.80390625 5.40683594 1.80390625 5.40683594 1.09375 4.1640625 C0 2 0 2 0 0 Z " fill="#50C176" transform="translate(578,120)"/>
<path d="M0 0 C0.66 0 1.32 0 2 0 C1.25 7.75 1.25 7.75 -1 10 C-1.02689216 8.52093108 -1.04634621 7.04172517 -1.0625 5.5625 C-1.07410156 4.73878906 -1.08570313 3.91507812 -1.09765625 3.06640625 C-1 1 -1 1 0 0 Z " fill="#48D079" transform="translate(357,84)"/>
<path d="M0 0 C0.99 0 1.98 0 3 0 C3.69584017 4.02040985 4.1700097 7.08263419 3 11 C2.49632243 9.54293274 1.99717444 8.08429904 1.5 6.625 C1.2215625 5.81289062 0.943125 5.00078125 0.65625 4.1640625 C0 2 0 2 0 0 Z " fill="#05240C" transform="translate(428,72)"/>
<path d="M0 0 C1.65 0.33 3.3 0.66 5 1 C5.125 3.375 5.125 3.375 5 6 C4.34 6.66 3.68 7.32 3 8 C0.875 7.625 0.875 7.625 -1 7 C0.65 5.35 2.3 3.7 4 2 C2.68 1.67 1.36 1.34 0 1 C0 0.67 0 0.34 0 0 Z " fill="#0D341A" transform="translate(142,55)"/>
<path d="M0 0 C1.98 0 3.96 0 6 0 C5.67 0.99 5.34 1.98 5 3 C1.37 3 -2.26 3 -6 3 C-6 2.67 -6 2.34 -6 2 C-4.02 1.67 -2.04 1.34 0 1 C0 0.67 0 0.34 0 0 Z " fill="#4BE17A" transform="translate(622,51)"/>
<path d="M0 0 C0.33 0 0.66 0 1 0 C1.304 9.12 1.304 9.12 -1 12 C-3.125 12.75 -3.125 12.75 -5 13 C-4.360625 12.154375 -3.72125 11.30875 -3.0625 10.4375 C-0.8033727 7.09271435 -0.32208241 4.02603008 0 0 Z " fill="#54D185" transform="translate(312,21)"/>
<path d="M0 0 C3.96 1.98 3.96 1.98 8 4 C7.67 4.66 7.34 5.32 7 6 C4.03 5.505 4.03 5.505 1 5 C0.67 3.35 0.34 1.7 0 0 Z " fill="#041A07" transform="translate(66,160)"/>
<path d="M0 0 C2.62386487 3.06117568 3 3.73173127 3 8 C2.34 8 1.68 8 1 8 C1 7.34 1 6.68 1 6 C0.34 6 -0.32 6 -1 6 C-0.67 4.02 -0.34 2.04 0 0 Z " fill="#031705" transform="translate(578,122)"/>
<path d="M0 0 C0.33 0 0.66 0 1 0 C1 2.97 1 5.94 1 9 C-0.32 8.34 -1.64 7.68 -3 7 C-3 6.01 -3 5.02 -3 4 C-2.01 4 -1.02 4 0 4 C0 2.68 0 1.36 0 0 Z " fill="#3FD173" transform="translate(156,118)"/>
<path d="M0 0 C3.53372712 1.96318174 6.24479785 4.04070881 9 7 C5.59687262 5.94124926 2.98646769 4.99097846 0 3 C0 2.01 0 1.02 0 0 Z " fill="#4CD383" transform="translate(143,116)"/>
<path d="M0 0 C0.66 0.33 1.32 0.66 2 1 C2.95067299 4.28414305 3.10102197 5.69693408 2 9 C1.34 9 0.68 9 0 9 C-1.10844919 5.67465243 -0.84454356 3.37817425 0 0 Z " fill="#31E875" transform="translate(470,107)"/>
<path d="M0 0 C2.625 0.375 2.625 0.375 5 1 C3.35 2.65 1.7 4.3 0 6 C0 5.01 0 4.02 0 3 C-0.66 2.67 -1.32 2.34 -2 2 C-1.34 1.34 -0.68 0.68 0 0 Z " fill="#47D379" transform="translate(246,83)"/>
<path d="M0 0 C0.598125 0.20625 1.19625 0.4125 1.8125 0.625 C-0.1875 3.625 -0.1875 3.625 -2.8125 4.3125 C-3.988125 4.4671875 -3.988125 4.4671875 -5.1875 4.625 C-5.1875 3.635 -5.1875 2.645 -5.1875 1.625 C-2.1875 -0.375 -2.1875 -0.375 0 0 Z " fill="#081608" transform="translate(229.1875,83.375)"/>
<path d="M0 0 C0 3 0 3 -2 6 C-4.625 6.6875 -4.625 6.6875 -7 7 C-2.25 1.125 -2.25 1.125 0 0 Z " fill="#4FD285" transform="translate(477,57)"/>
<path d="M0 0 C1.65 0.33 3.3 0.66 5 1 C2.38485683 3.12038635 -0.19637616 5.13091744 -3 7 C-2.38722388 4.03824877 -1.74627478 2.61941217 0 0 Z " fill="#03290C" transform="translate(475,54)"/>
<path d="M0 0 C0.33 0.99 0.66 1.98 1 3 C2.175625 3.185625 2.175625 3.185625 3.375 3.375 C6 4 6 4 8 6 C4.625 5.6875 4.625 5.6875 1 5 C0.34 4.01 -0.32 3.02 -1 2 C-0.67 1.34 -0.34 0.68 0 0 Z " fill="#001804" transform="translate(26,136)"/>
<path d="M0 0 C-2.40820361 2.40820361 -3.65022937 2.68097423 -7 3 C-9.3125 2.0625 -9.3125 2.0625 -11 1 C-3.375 -1.125 -3.375 -1.125 0 0 Z " fill="#44BE74" transform="translate(523,134)"/>
<path d="M0 0 C4.875 4.75 4.875 4.75 6 7 C4.0625 6.625 4.0625 6.625 2 6 C1.67 5.34 1.34 4.68 1 4 C0.01 4.495 0.01 4.495 -1 5 C-1.33 4.01 -1.66 3.02 -2 2 C-1.34 2 -0.68 2 0 2 C0 1.34 0 0.68 0 0 Z " fill="#45C874" transform="translate(594,120)"/>
<path d="M0 0 C-6.75 4 -6.75 4 -9 4 C-8.1875 2.0625 -8.1875 2.0625 -7 0 C-3.86650268 -1.04449911 -3.01031744 -0.93423645 0 0 Z " fill="#032509" transform="translate(60,119)"/>
<path d="M0 0 C3.48539917 0.64544429 6.02819057 2.10134397 9 4 C7.3125 4.6875 7.3125 4.6875 5 5 C2.25 3.6875 2.25 3.6875 0 2 C0 1.34 0 0.68 0 0 Z " fill="#0C0007" transform="translate(49,75)"/>
<path d="M0 0 C3.53586014 3.17320782 5.58578031 5.16743695 6 10 C5.34 10 4.68 10 4 10 C4 8.68 4 7.36 4 6 C3.01 5.67 2.02 5.34 1 5 C0.67 3.35 0.34 1.7 0 0 Z " fill="#012506" transform="translate(408,70)"/>
<path d="M0 0 C-2.88035092 2.24027294 -5.84866512 4.16172132 -9 6 C-9 5.01 -9 4.02 -9 3 C-8.34 3 -7.68 3 -7 3 C-7 2.34 -7 1.68 -7 1 C-4.53721199 -0.231394 -2.7204945 -0.07159196 0 0 Z " fill="#50CD7D" transform="translate(377,64)"/>
<path d="M0 0 C7.50769231 -0.36923077 7.50769231 -0.36923077 10 1.5 C10.495 2.2425 10.495 2.2425 11 3 C9 4 9 4 6.8359375 3.44140625 C6.02382813 3.15136719 5.21171875 2.86132812 4.375 2.5625 C3.55773437 2.27503906 2.74046875 1.98757812 1.8984375 1.69140625 C1.27195312 1.46324219 0.64546875 1.23507813 0 1 C0 0.67 0 0.34 0 0 Z " fill="#063514" transform="translate(638,50)"/>
<path d="M0 0 C0.33 0.66 0.66 1.32 1 2 C0.01 3.32 -0.98 4.64 -2 6 C-3.32 5.67 -4.64 5.34 -6 5 C-4.02 3.35 -2.04 1.7 0 0 Z " fill="#022C0E" transform="translate(659,136)"/>
<path d="M0 0 C2.88575819 0.39803561 3.82189513 0.79009069 5.75 3.0625 C6.1625 3.701875 6.575 4.34125 7 5 C6.34 5.66 5.68 6.32 5 7 C0 1.125 0 1.125 0 0 Z " fill="#43BE72" transform="translate(468,132)"/>
<path d="M0 0 C0.66 0.33 1.32 0.66 2 1 C1.21625 1.763125 0.4325 2.52625 -0.375 3.3125 C-3.07257717 5.90891805 -3.07257717 5.90891805 -5 9 C-5 7.35 -5 5.7 -5 4 C-4.01 3.67 -3.02 3.34 -2 3 C-2 2.34 -2 1.68 -2 1 C-1.34 0.67 -0.68 0.34 0 0 Z " fill="#52D885" transform="translate(207,125)"/>
<path d="M0 0 C0.33 0 0.66 0 1 0 C1.17942163 3.94727588 1.09350689 6.5980513 -1 10 C-1.66 10 -2.32 10 -3 10 C-2.39009109 6.44219804 -1.4216319 3.3171411 0 0 Z " fill="#32E977" transform="translate(666,117)"/>
<path d="M0 0 C1 3 1 3 0 6 C-1.65 6 -3.3 6 -5 6 C-3.35 4.02 -1.7 2.04 0 0 Z " fill="#40C473" transform="translate(210,104)"/>
<path d="M0 0 C0 0.66 0 1.32 0 2 C0.66 2 1.32 2 2 2 C1.67 2.66 1.34 3.32 1 4 C-1.375 3.6875 -1.375 3.6875 -4 3 C-4.66 2.01 -5.32 1.02 -6 0 C-3.50907189 -1.24546405 -2.58919267 -0.7767578 0 0 Z " fill="#48E07C" transform="translate(135,109)"/>
<path d="M0 0 C0.66 0 1.32 0 2 0 C2 1.65 2 3.3 2 5 C0.68 5.33 -0.64 5.66 -2 6 C-1.125 1.125 -1.125 1.125 0 0 Z " fill="#31E96D" transform="translate(472,75)"/>
<path d="M0 0 C2.00720923 0.28674418 4.0085944 0.61866701 6 1 C4 3 4 3 1.8359375 3.1953125 C0.61777344 3.16050781 0.61777344 3.16050781 -0.625 3.125 C-1.44226563 3.10695312 -2.25953125 3.08890625 -3.1015625 3.0703125 C-3.72804688 3.04710937 -4.35453125 3.02390625 -5 3 C-4.360625 2.690625 -3.72125 2.38125 -3.0625 2.0625 C-1.06389179 1.1654837 -1.06389179 1.1654837 0 0 Z " fill="#4CE682" transform="translate(626,59)"/>
<path d="M0 0 C1.32 0.99 2.64 1.98 4 3 C3.67 3.99 3.34 4.98 3 6 C1.02 4.68 -0.96 3.36 -3 2 C-2.01 1.34 -1.02 0.68 0 0 Z " fill="#062D10" transform="translate(652,53)"/>
<path d="M0 0 C-3.28463659 2.18975773 -6.20696275 2.99806563 -10 4 C-9.67 3.01 -9.34 2.02 -9 1 C-5.8035914 -0.06546953 -3.34252724 -0.07427838 0 0 Z " fill="#002509" transform="translate(608,50)"/>
<path d="M0 0 C1.65 0.33 3.3 0.66 5 1 C1.25 4 1.25 4 -1 4 C-1.33 4.66 -1.66 5.32 -2 6 C-2.66 5.01 -3.32 4.02 -4 3 C-2.68 2.67 -1.36 2.34 0 2 C0 1.34 0 0.68 0 0 Z " fill="#07280F" transform="translate(293,12)"/>
<path d="M0 0 C2.31 0.66 4.62 1.32 7 2 C7 2.99 7 3.98 7 5 C4.0625 4.1875 4.0625 4.1875 1 3 C0.67 2.01 0.34 1.02 0 0 Z " fill="#4BCA7D" transform="translate(50,149)"/>
<path d="M0 0 C1.32 0.66 2.64 1.32 4 2 C1 4 1 4 -1.1875 3.625 C-1.785625 3.41875 -2.38375 3.2125 -3 3 C-2.01 2.01 -1.02 1.02 0 0 Z " fill="#021206" transform="translate(590,139)"/>
<path d="M0 0 C1.32 0 2.64 0 4 0 C4 1.98 4 3.96 4 6 C2.68 5.34 1.36 4.68 0 4 C0 2.68 0 1.36 0 0 Z " fill="#49D982" transform="translate(584,128)"/>
<path d="M0 0 C3.375 0.3125 3.375 0.3125 7 1 C7.66 1.99 8.32 2.98 9 4 C8.01 4.495 8.01 4.495 7 5 C4.5249829 3.88568235 2.32116581 2.41849022 0 1 C0 0.67 0 0.34 0 0 Z " fill="#3CB668" transform="translate(123,107)"/>
<path d="M0 0 C0.33 0.99 0.66 1.98 1 3 C0 5 0 5 -3.0625 6.125 C-4.031875 6.41375 -5.00125 6.7025 -6 7 C-4.02 4.69 -2.04 2.38 0 0 Z " fill="#40BB70" transform="translate(217,97)"/>
<path d="M0 0 C-3.96 1.98 -3.96 1.98 -8 4 C-8.33 3.34 -8.66 2.68 -9 2 C-8.67 1.34 -8.34 0.68 -8 0 C-4.71585695 -0.95067299 -3.30306592 -1.10102197 0 0 Z " fill="#45CF76" transform="translate(108,82)"/>
<path d="M0 0 C3.96 1.98 3.96 1.98 8 4 C7.34 4.66 6.68 5.32 6 6 C5.34 5.67 4.68 5.34 4 5 C4 4.34 4 3.68 4 3 C3.01 3.33 2.02 3.66 1 4 C0.67 2.68 0.34 1.36 0 0 Z " fill="#05280B" transform="translate(39,66)"/>
<path d="M0 0 C-0.66 1.65 -1.32 3.3 -2 5 C-3.98 5 -5.96 5 -8 5 C-3.22727273 0 -3.22727273 0 0 0 Z " fill="#06280E" transform="translate(610,65)"/>
<path d="M0 0 C1.32 1.32 2.64 2.64 4 4 C3.34 4 2.68 4 2 4 C1.34 5.32 0.68 6.64 0 8 C0 6.68 0 5.36 0 4 C-0.66 3.67 -1.32 3.34 -2 3 C-1.34 2.67 -0.68 2.34 0 2 C0 1.34 0 0.68 0 0 Z " fill="#4DDD89" transform="translate(656,60)"/>
<path d="M0 0 C0.99 0.66 1.98 1.32 3 2 C1.68 3.32 0.36 4.64 -1 6 C-1.99 5.67 -2.98 5.34 -4 5 C-2.68 3.35 -1.36 1.7 0 0 Z " fill="#072B0E" transform="translate(588,58)"/>
<path d="M0 0 C-0.33 1.98 -0.66 3.96 -1 6 C-2.32 4.68 -3.64 3.36 -5 2 C-2 0 -2 0 0 0 Z " fill="#09240F" transform="translate(661,57)"/>
<path d="M0 0 C6.875 3.625 6.875 3.625 8 7 C7.34 7 6.68 7 6 7 C5.67 6.34 5.34 5.68 5 5 C4.154375 4.505 3.30875 4.01 2.4375 3.5 C1.633125 3.005 0.82875 2.51 0 2 C0 1.34 0 0.68 0 0 Z " fill="#55C982" transform="translate(530,54)"/>
</svg>
