<?xml version="1.0" standalone="no"?>
<!DOCTYPE svg PUBLIC "-//W3C//DTD SVG 20010904//EN"
 "http://www.w3.org/TR/2001/REC-SVG-20010904/DTD/svg10.dtd">
<svg version="1.0" xmlns="http://www.w3.org/2000/svg"
 width="672.000000pt" height="196.000000pt" viewBox="0 0 672.000000 196.000000"
 preserveAspectRatio="xMidYMid meet">

<g transform="translate(0.000000,196.000000) scale(0.100000,-0.100000)"
fill="#000000" stroke="none">
<path d="M0 980 l0 -980 3360 0 3360 0 -1 438 c-1 294 -4 419 -10 383 -12 -72
-61 -160 -122 -221 -172 -172 -502 -180 -683 -17 -72 65 -104 116 -131 208
-54 188 -17 401 93 528 136 158 436 201 629 91 99 -57 183 -168 209 -277 13
-53 14 -18 15 385 l1 442 -3360 0 -3360 0 0 -980z m3080 833 c35 -20 50 -52
50 -104 0 -33 -7 -48 -34 -75 -97 -97 -248 26 -176 144 32 52 105 68 160 35z
m-2270 -443 c0 -179 -4 -300 -9 -300 -5 0 -31 13 -58 29 -83 49 -213 125 -340
197 -67 38 -122 71 -122 74 0 7 502 298 517 299 9 1 12 -65 12 -299z m325 196
c99 -58 214 -124 255 -147 l75 -42 -28 -21 c-16 -12 -65 -42 -110 -67 -45 -25
-147 -83 -227 -129 -80 -45 -148 -85 -152 -87 -5 -2 -8 131 -8 296 0 166 3
301 8 301 4 0 88 -47 187 -104z m4084 -115 c81 -25 139 -60 190 -116 41 -45
92 -141 105 -197 6 -26 4 -27 -51 -38 -32 -6 -66 -14 -75 -16 -13 -4 -18 0
-18 13 0 30 -56 136 -86 165 -61 56 -111 73 -214 73 -115 -1 -170 -22 -242
-92 -76 -75 -93 -124 -93 -273 0 -115 2 -130 27 -182 38 -82 107 -144 186
-168 186 -58 356 14 412 172 10 29 24 54 30 56 7 3 39 -1 71 -8 72 -16 74 -24
23 -126 -71 -144 -203 -232 -363 -243 -181 -13 -296 24 -402 129 -102 100
-139 200 -139 376 0 148 36 251 120 346 48 55 150 116 224 134 80 19 224 17
295 -5z m-1156 -11 c82 -25 164 -96 201 -173 39 -80 47 -165 44 -482 l-3 -290
-72 -3 -71 -3 -4 328 -3 328 -28 57 c-21 43 -39 64 -80 90 -50 32 -55 33 -157
33 -118 0 -164 -17 -227 -81 -79 -82 -93 -153 -93 -492 l0 -263 -72 3 -73 3 0
475 0 475 70 0 70 0 3 -82 c3 -91 18 -108 47 -55 34 63 98 113 170 135 74 23
199 21 278 -3z m-1423 -94 l0 -104 -305 -299 c-168 -164 -305 -304 -305 -310
0 -10 70 -13 315 -13 l315 0 0 -65 0 -65 -390 0 -390 0 0 102 0 101 307 302
c194 191 304 306 299 313 -5 9 -84 12 -297 12 l-289 0 0 59 c0 38 4 61 13 64
6 3 173 6 370 6 l357 1 0 -104z m448 -379 l2 -478 -72 3 -73 3 -3 465 c-1 256
0 471 3 478 3 9 24 12 72 10 l68 -3 3 -478z m-1508 13 l0 -289 -68 37 c-138
76 -431 247 -431 252 -1 4 75 49 308 181 25 15 78 45 116 67 39 23 71 42 73
42 1 0 2 -130 2 -290z m-770 -395 l0 -305 -37 19 c-29 15 -405 232 -482 279
-11 6 35 37 165 112 98 57 215 125 259 151 44 27 83 49 88 49 4 0 7 -137 7
-305z m300 213 c88 -51 168 -98 177 -103 124 -70 173 -100 173 -105 0 -3 -73
-48 -162 -100 -90 -51 -199 -115 -244 -141 -44 -27 -88 -51 -97 -55 -16 -6
-17 18 -17 295 0 166 2 301 5 301 3 0 77 -42 165 -92z"/>
<path d="M6149 1331 c-83 -17 -181 -100 -222 -189 -18 -39 -21 -66 -21 -167
-1 -104 3 -128 23 -180 33 -82 100 -146 183 -174 193 -65 390 25 443 203 23
75 21 227 -4 298 -56 163 -214 245 -402 209z"/>
</g>
</svg>
